<svg width="380" height="182" fill="none" xmlns="http://www.w3.org/2000/svg"><path d="M379 49.514S301.194 109.5 246.613 70.452 193.194 3.11 134.548 9.335C75.903 15.56 49.774 143.453 1 129.306" stroke="#C5E1F9" stroke-width="2" stroke-miterlimit="10" stroke-dasharray="4 4"/><path d="M12.034 1v163.742h107.618V1H12.034zm96.658 141.482H22.486V11.32h86.206v131.162z" fill="#fff" stroke="#E0E0E0" stroke-width=".5" stroke-linecap="round" stroke-linejoin="round"/><path d="M109.075 10.955H22.869v131.163h86.206V10.955z" fill="#CFEAFF"/><path d="M108.921 37.88s-16.174-14.715-36.18 6.696C61.426 56.686 46.823 23.637 22.486 29.98v112.503h86.205l.23-104.602z" fill="#EAF4FE"/><path d="M50.8 30.808s-3.796-.003-3.409 3.015c.387 3.019 4.4 2.046 4.4 2.046s-1.066-3.926-.99-5.06zM72.47 34.81a2.42 2.42 0 001.4-.909c.34-.456.5-1.016.452-1.578a2.263 2.263 0 00-.478-1.44 2.367 2.367 0 00-1.291-.841l-.083 4.768zM50.906 36.649l2.678 13.444 9.678 7.622 3.097 7.621 4.258-17.25-.65-5.884-19.06-5.553z" fill="#FCC8D7"/><path d="M51.128 37.213s1.488 10.77 7.779 11.983c6.124 1.181 7.677-4.495 7.677-4.495s-9.778 4.334-15.456-7.488z" fill="#000"/><path d="M49.326 27.033c-.226.018.3 4.506.342 4.776.495 3.161 1.503 6.373 3.48 8.967a12.112 12.112 0 005.111 3.772c2.02.788 4.22 1.033 6.37.709 5.026-.854 7.566-5.24 8.028-9.881a50.352 50.352 0 00-.104-10.23l-23.227 1.887z" fill="#FCC8D7"/><path d="M51.981 26.817s.8 6.49-1.895 7.126a61.349 61.349 0 01-.76-6.91l2.655-.216zM70.279 25.288s.972 5.423 2.59 5.848c0 0 .071-4.858-.316-5.99l-2.274.142zM67.03 29.105l.127.993a.84.84 0 00.256.58.885.885 0 00.595.25c.414-.019.91-.37.851-.83l-.127-.993a.841.841 0 00-.256-.58.885.885 0 00-.595-.249c-.414.018-.91.368-.85.83zM56.04 29.954l.144 1.085a.841.841 0 00.256.58.885.885 0 00.595.25c.412-.018.912-.369.851-.83l-.145-1.085a.841.841 0 00-.255-.58.885.885 0 00-.595-.249c-.412.018-.913.369-.851.83z" fill="#000"/><path d="M63.237 56.529l-11.566 5.636-.083.04.011-.09 1.539-12.748-.098.036-.495.182a936.534 936.534 0 00-7.314 2.725 354.086 354.086 0 00-5.897 2.281c-1.725.69-3.052 1.255-3.532 1.536-.962.562-2.023 1.502-3.038 2.492a82.908 82.908 0 00-1.47 1.479l-.094.097c-.43.44-.833.854-1.195 1.206-.772.753-2.61 2.826-4.255 4.714a538.202 538.202 0 00-2.845 3.289l-.187.218-.049.057-.004.005v39.483l6.884-6.337.076-.069.008.102.382 4.841.057-.02c.076-.027.189-.069.332-.129.288-.12.7-.31 1.196-.59.993-.561 2.326-1.484 3.681-2.93 2.71-2.891 5.511-7.878 5.866-16.261l.001-.03.027-.013 7.742-3.773.051-.025 14.27-27.404zm0 0l3.076 7.12.056.129.038-.135 1.924-6.749 9.634 1.503.113.017-.064-.095-7.268-10.812 11.048 4.084v30.52a4.302 4.302 0 01-1.207 2.173 4.485 4.485 0 01-2.237 1.179h0-.003c-1.446.376-3.74.588-6.4.689-2.66.1-5.684.088-8.587.017-2.902-.07-5.684-.2-7.861-.336-2.179-.135-3.748-.277-4.228-.37-.958-.187-1.53-.56-1.861-.883a2.072 2.072 0 01-.337-.42 1.315 1.315 0 01-.083-.163l-.003-.008v-.002h0l14.25-27.458z" fill="#0062FF" stroke="#C6C6C6" stroke-width=".1"/><path d="M62.876 27.787c.791 2.287 2.125 5.474 0 7.546" stroke="#000" stroke-width=".2" stroke-linecap="round" stroke-linejoin="round"/><path d="M61.812 33.411l-.31.555a.81.81 0 00-.089.63.832.832 0 00.394.505.87.87 0 00.645.086.849.849 0 00.519-.384l.31-.555a.811.811 0 00.087-.628.832.832 0 00-.393-.505.87.87 0 00-.645-.086.85.85 0 00-.518.382z" fill="#000"/><path d="M69.44 35.727a1.257 1.257 0 00-.403-.267c-.821-.336-1.617.355-2.32.661a6.056 6.056 0 01-2.687.462 9.703 9.703 0 01-5.065-1.92 6.458 6.458 0 00-1.853-1.09c-1.888-.55-2.975 1.514-3.077 3.048-.348 5.286 7.22 7.532 11.378 5.828a7.784 7.784 0 002.812-2.002c.973-1.08 2.579-3.385 1.215-4.72z" fill="#000"/><path d="M57.723 33.829l-.468 1.614a.806.806 0 00.04.558c.079.176.219.32.395.406 1.447.708 5.164 2.326 8.415 2.03a.865.865 0 00.493-.212c.137-.12.23-.28.266-.456l.39-1.924a7.926 7.926 0 01-5.435.306c-1.084-.36-4.096-2.322-4.096-2.322z" fill="#fff"/><path d="M54.191 38.246s7.611-.253 12.793 3.322c0 0-2.769 2.624-7.645 1.041-4.98-1.617-5.148-4.363-5.148-4.363z" fill="#FF2227"/><path d="M53.197 49.292L51.65 62.12l11.613-5.66-9.678-7.168h-.387zM70.618 47.407l7.355 10.94-9.85-1.44 2.495-9.5z" fill="#F4F4F4"/><path d="M91.185 54.263c1.424.405 5.76 1.875 9.771 3.255a1771.212 1771.212 0 017.158 2.481l.478.167.126.044.009.003.035 38.36-6.767-3.297-.061-.03-.01.068-1.149 8.212c-5.699-4.692-8.007-9.766-8.89-13.67a19.874 19.874 0 01-.502-4.802c.013-.588.054-1.053.092-1.37a8.742 8.742 0 01.065-.457l.005-.023v-.006l.001-.002h0l-.049-.01.05.01v-.01l-.362-28.923z" fill="#0062FF" stroke="#C6C6C6" stroke-width=".1"/><path d="M32.973 58.347l8.224 29.429s-.388 12.45-11.227 19.996l4.258 26.032c-.303.656-2.492 7.781-2.322 8.772h70.068l-1.162-38.955s-9.29-10.563-9.29-18.486l-.387-30.938-9.291-2.64V81.08a4.724 4.724 0 01-1.191 3.19 3.755 3.755 0 01-2.293 1.24s-4.393 1.279-17.294.64l-8.45-.48s-2.903-.16-3.677-1.668l-8.471-29.915c.13-.052-1.764.69-2.901 1.157-.97.396-1.79.839-1.79.839s-.887.408-2.804 2.263z" fill="#E0E0E0"/><path d="M70.23 60.611c.642 0 1.161-.507 1.161-1.132 0-.625-.52-1.132-1.16-1.132-.642 0-1.162.507-1.162 1.132 0 .625.52 1.132 1.161 1.132zM69.07 64.384c.64 0 1.16-.507 1.16-1.132 0-.625-.52-1.132-1.16-1.132-.642 0-1.162.507-1.162 1.132 0 .625.52 1.132 1.161 1.132z" fill="#01066D"/><path d="M53.971 94.19h25.163s2.104 20.75-12.606 20.75S53.97 94.19 53.97 94.19z" stroke="#0062FF" stroke-linecap="round" stroke-linejoin="round"/><path d="M55.67 95.591h21.764s1.82 17.947-10.903 17.947-10.86-17.947-10.86-17.947z" stroke="#33B1FF" stroke-linecap="round" stroke-linejoin="round" stroke-dasharray="4 4"/><path d="M4.808 84.757a19.463 19.463 0 011.002-9.043c.104-.261.237-.512.394-.746 1.078-1.63 5.616-8.41 8.669-11.716 0 0 2.508-4.279 4.421-3.209.207.126.381.298.509.5.127.204.204.434.224.671.075.705 0 1.417-.222 2.093a5.115 5.115 0 01-1.061 1.831s2.71-.754 2.323 2.264a19.88 19.88 0 01-2.323 6.791s2.323-1.132 3.097.755c.774 1.886-2.71 7.923-2.71 7.923s3.097-1.132 2.71 3.018c-.387 4.15-6.194 8.3-8.517 14.337a22.877 22.877 0 00-1.37 6.036S6.743 92.68 4.807 84.757z" fill="#FCC8D7"/><path d="M18.744 74.193l-4.646 10.564M19.13 82.87l-3.096 6.037" stroke="#01066D" stroke-width=".1" stroke-linecap="round" stroke-linejoin="round"/><path d="M14.873 63.252s1.16 1.51 2.322 1.132c1.162-.377 2.71-3.354 1.549-4.507 0 0-1.162-.256-2.71 1.748l-1.161 1.627zM17.584 67.323a3.283 3.283 0 00-.403 1.71c-.028.282.033.565.173.813.141.248.356.448.616.574.79.257 1.404-.044 2.02-.728a4.158 4.158 0 001.109-2.733c.005-.792-.202-1.632-1.048-1.82l-.51-.05a1.088 1.088 0 00-.871.282 1 1 0 00-.175.236l-.91 1.716zM19.855 73.879s-1.499 2.578-1.111 4.087c.387 1.51 1.736 1.479 2.416.74 0 0 1.472-3.066.302-4.355a2.89 2.89 0 00-1.607-.472zM20.497 82.786s-1.519 1.42-1.781 2.92a1.743 1.743 0 00.421 1.477c.178.2.4.36.65.465.249.107.52.158.791.15.208-.007.41-.07.583-.18.173-.112.311-.269.398-.453 0 0 1.078-3.71-1.062-4.379z" fill="#FFDCE8"/><path d="M17.014 68.398l-4.077 7.682" stroke="#01066D" stroke-width=".1" stroke-linecap="round" stroke-linejoin="round"/><path d="M112.996 59.353a1.639 1.639 0 00-1.635.079c-.484.33-.871.99-.484 2.31a10.217 10.217 0 002.323 4.15s-2.323-2.263-3.484-.376c-1.162 1.886 1.935 6.413 1.935 6.413s-1.548-1.132-2.323 0c-.774 1.132.388 3.773 1.936 6.414 0 0-2.323-.377-1.548 2.264.774 2.64 9.825 13.362 9.825 13.362l.077 10.501s5.969-6.508 8.292-13.3c2.323-6.79 2.71-12.072 1.161-14.336-1.498-2.19-10.249-14.63-16.075-17.48z" fill="#FCC8D7"/><path d="M112.946 65.616l6.836 8.955M111.651 71.93l5.033 7.923M111.265 78.343l5.032 6.037" stroke="#01066D" stroke-width=".1" stroke-linecap="round" stroke-linejoin="round"/><path d="M113.2 59.48s3.678 4.922-.484 5.856c0 0-2.05-2.702-1.944-5.034 0 0 .492-1.955 2.428-.823zM111.652 64.9s2.71 2.502 1.548 5.143c-1.161 2.641-2.177.872-2.177.872s-2.38-3.83-1.307-5.4c.193-.311.495-.546.85-.659a1.596 1.596 0 011.086.043zM110.768 71.502s2.045 2.691.884 3.823c-1.161 1.132-2.103-.416-2.103-.416s-.994-2.225-.22-2.98c.163-.21.389-.365.648-.442.259-.077.536-.072.791.015zM110.521 78.375s2.849 3.773.441 4.511c0 0-1.846-2.415-1.352-3.667 0 0 .167-.812.911-.844z" fill="#FFDCE8"/><path d="M92.876 22.788s.243 7.167-3.58 7.167c0 0 3.823.143 3.675 6.442 0 0 .148-6.3 3.97-6.355 0 0-4.016.455-4.065-7.254z" fill="#33B1FF" stroke="#3DDBD9" stroke-miterlimit="10"/><path d="M36.842 39.577l-6 1.698M34.712 43.35l-1.742-5.848" stroke="#D2A106" stroke-width=".75" stroke-linecap="round" stroke-linejoin="round"/><path d="M43.1 20.032l-1.741-5.848M85.106 47.983l4.896-3.784" stroke="#FF2227" stroke-linecap="round" stroke-linejoin="round"/><path d="M26.592 146.152l1.483 2.929 3.317.47-2.4 2.279.566 3.22-2.966-1.52-2.966 1.52.566-3.22-2.4-2.279 3.316-.47 1.484-2.929z" fill="#FFDA00" stroke="#C6C6C6" stroke-width=".1" stroke-miterlimit="10"/><path d="M72.165 25.523l8.06-.357a.176.176 0 00.098-.035.164.164 0 00.059-.186.168.168 0 00-.061-.082 14.193 14.193 0 00-8.156-2.735s-3.097-9.432-12.774-8.678c-10.533.821-10.453 13.96-10.453 13.96l23.227-1.887z" fill="#0062FF"/><path d="M61.907 23.26c1.604 0 2.904-1.267 2.904-2.83 0-1.563-1.3-2.83-2.904-2.83-1.603 0-2.903 1.267-2.903 2.83 0 1.563 1.3 2.83 2.903 2.83z" fill="#fff"/><path d="M103.861 155.692c2.648 0 4.794-2.091 4.794-4.672 0-2.58-2.146-4.671-4.794-4.671-2.647 0-4.793 2.091-4.793 4.671 0 2.581 2.146 4.672 4.793 4.672z" fill="#EDC603"/><path d="M104.49 155.692c2.647 0 4.794-2.091 4.794-4.672 0-2.58-2.147-4.671-4.794-4.671s-4.793 2.091-4.793 4.671c0 2.581 2.146 4.672 4.793 4.672z" fill="#FFDA00"/><g style="mix-blend-mode:multiply"><path d="M104.873 152.608l-.003-.613a20.674 20.674 0 00-.018-.617c-.01-.204-.024-.404-.043-.6a6.176 6.176 0 00-.077-.561 4.148 4.148 0 00-.124-.503 2.187 2.187 0 00-.18-.426l.511-.307c.075.114.137.235.185.362.05.134.092.271.126.41.036.143.066.293.09.45.024.156.048.315.07.476.016.123.029.256.039.399a15.252 15.252 0 01.034.878l.002.405v.247h-.612z" fill="#997D05" opacity=".34"/></g><path d="M104.306 152.608c0-.201-.001-.405-.004-.613a15.599 15.599 0 00-.06-1.217 6.542 6.542 0 00-.078-.561 4.34 4.34 0 00-.123-.503 2.25 2.25 0 00-.18-.426l.51-.307c.075.114.137.235.185.362.051.134.093.271.127.41.036.143.065.293.09.45.024.156.047.315.07.476.016.123.029.256.038.399.01.144.018.29.023.438a29.26 29.26 0 01.014.845v.247h-.612z" fill="#FF0"/><path d="M108.312 151.9c.498-2.057-.809-4.118-2.92-4.604-2.11-.486-4.225.788-4.724 2.845-.498 2.057.809 4.119 2.92 4.604 2.11.486 4.225-.788 4.724-2.845z" stroke="#FF0" stroke-width=".75" stroke-linecap="round" stroke-linejoin="round" stroke-dasharray="4.34 4.34"/><path d="M92.73 155.692c2.648 0 4.794-2.091 4.794-4.672 0-2.58-2.146-4.671-4.793-4.671-2.647 0-4.793 2.091-4.793 4.671 0 2.581 2.146 4.672 4.793 4.672z" fill="#EDC603"/><path d="M93.36 155.692c2.647 0 4.793-2.091 4.793-4.672 0-2.58-2.146-4.671-4.793-4.671-2.647 0-4.794 2.091-4.794 4.671 0 2.581 2.147 4.672 4.794 4.672z" fill="#FFDA00"/><g style="mix-blend-mode:multiply"><path d="M93.743 152.608c0-.201 0-.405-.003-.613a17.297 17.297 0 00-.018-.617c-.01-.204-.024-.404-.043-.6a6.392 6.392 0 00-.077-.561 4.32 4.32 0 00-.123-.503 2.225 2.225 0 00-.18-.426l.51-.307c.075.114.137.235.185.362.05.134.093.271.127.41.035.143.065.293.09.45l.07.476c.015.123.028.256.038.399a14.896 14.896 0 01.034.878l.002.405v.247h-.612z" fill="#997D05" opacity=".34"/></g><path d="M93.177 152.608c0-.201-.002-.405-.004-.613a17.296 17.296 0 00-.018-.617 13.05 13.05 0 00-.043-.6 6.392 6.392 0 00-.077-.561 4.32 4.32 0 00-.123-.503 2.225 2.225 0 00-.18-.426l.51-.307c.075.114.137.235.185.362.05.134.093.271.127.41.035.143.065.293.09.45l.07.476c.015.123.028.256.038.399a14.896 14.896 0 01.034.878l.002.405v.247h-.611z" fill="#FF0"/><path d="M96.137 153.727a3.76 3.76 0 000-5.413c-1.534-1.494-4.02-1.494-5.553 0a3.76 3.76 0 000 5.413c1.533 1.494 4.02 1.494 5.553 0z" stroke="#FF0" stroke-width=".75" stroke-linecap="round" stroke-linejoin="round" stroke-dasharray="4.34 4.34"/><path d="M81.602 155.692c2.647 0 4.793-2.091 4.793-4.672 0-2.58-2.146-4.671-4.793-4.671-2.648 0-4.794 2.091-4.794 4.671 0 2.581 2.146 4.672 4.793 4.672z" fill="#EDC603"/><path d="M82.23 155.692c2.648 0 4.794-2.091 4.794-4.672 0-2.58-2.146-4.671-4.794-4.671-2.647 0-4.793 2.091-4.793 4.671 0 2.581 2.146 4.672 4.793 4.672z" fill="#FFDA00"/><g style="mix-blend-mode:multiply"><path d="M82.613 152.608c0-.201-.001-.405-.004-.613a17.297 17.297 0 00-.018-.617 13.05 13.05 0 00-.042-.6 6.392 6.392 0 00-.078-.561 4.32 4.32 0 00-.123-.503 2.225 2.225 0 00-.18-.426l.51-.307c.076.114.138.235.185.362.05.134.093.271.127.41.036.143.066.293.09.45.024.156.047.315.07.476.016.123.029.256.039.399a14.896 14.896 0 01.034.878l.002.405v.247h-.612z" fill="#997D05" opacity=".34"/></g><path d="M82.046 152.608c0-.201-.001-.405-.004-.613a17.297 17.297 0 00-.018-.617 13.05 13.05 0 00-.042-.6 6.392 6.392 0 00-.077-.561 4.32 4.32 0 00-.124-.503 2.225 2.225 0 00-.18-.426l.51-.307c.076.114.138.235.185.362.051.134.093.271.127.41.036.143.066.293.09.45.024.156.047.315.07.476.016.123.029.256.039.399a14.896 14.896 0 01.034.878l.002.405v.247h-.612z" fill="#FF0"/><path d="M83.733 154.556c2.003-.809 2.955-3.047 2.125-5-.83-1.953-3.127-2.88-5.13-2.071-2.004.809-2.956 3.047-2.126 5 .83 1.953 3.127 2.88 5.13 2.071z" stroke="#FF0" stroke-width=".75" stroke-linecap="round" stroke-linejoin="round" stroke-dasharray="4.34 4.34"/><path d="M42.773 62.231l-7.902 2.907M43.496 64.782l-7.882 3.016M81.844 59.479l9.29.392M81.844 62.12l9.29.433" stroke="#C6C6C6" stroke-linecap="round" stroke-linejoin="round"/><path d="M113.414 69.377s-1.908-.232-2.392 1.538a.947.947 0 00.503.466.978.978 0 00.693.013c.788-.313 1.196-2.017 1.196-2.017zM114.566 62.231s.667 2.69-1.85 3.105c0 0-.462-1.39 1.85-3.105zM111.929 73.792a3.197 3.197 0 00-1.191.546 3.105 3.105 0 00-.861.97s.662.96 1.775.017c.184-.207.307-.459.356-.729.049-.27.022-.548-.079-.804zM111.915 81.362s.39.739-.953 1.525c0 0-.913-.912.953-1.525zM14.873 63.252s1.113-1.462 2.322 1.132c0 0-1.306.33-2.322-1.132zM17.18 69.033s1.733-.258 2.255 1.16a1.38 1.38 0 01-1.551.202 1.331 1.331 0 01-.575-.571 1.286 1.286 0 01-.128-.791z" fill="#FFE9F1"/><path d="M29.97 107.772l4.226 26.756s-2.451 4.779-2.29 8.048h13.13s-3.872-3.332-2.13-15.028c1.742-11.696-9.226-22.92-9.226-22.92l-3.71 3.144z" fill="#C6C6C6"/><path d="M18.68 77.471s1.945-.29 2.48 1.234c-.218.221-.502.37-.811.426a1.55 1.55 0 01-.914-.112s-.65-.322-.755-1.548zM18.716 85.706s2.32-.283 2.843 1.46c-.088.159-.211.298-.36.408a1.324 1.324 0 01-1.054.23 1.324 1.324 0 01-.505-.218 1.724 1.724 0 01-.792-.786 1.663 1.663 0 01-.132-1.094z" fill="#FFE9F1"/><path d="M101.974 95.321l-3.099-2.075M29.584 102.867l3.239-3.207" stroke="#C6C6C6" stroke-linecap="round" stroke-linejoin="round"/><path d="M108.681 11.248H22.486v131.234h86.195V11.248z" stroke="#E0E0E0" stroke-width=".5" stroke-linecap="round" stroke-linejoin="round"/><path d="M66.359 63.63l.225 22.26" stroke="#C6C6C6" stroke-linecap="round" stroke-linejoin="round"/><path d="M79.488 111.855s-6.103 21.617-23.1 19.533c0 0 11.472-1.972 23.1-19.533z" fill="#C6C6C6"/><mask id="a" fill="#fff"><path d="M35.423 153.873a6.81 6.81 0 01-.27-.468 9.49 9.49 0 01-.295-.618c-.1-.226-.196-.467-.29-.724a10.203 10.203 0 01-.248-.785 7.518 7.518 0 01-.22.657 8.354 8.354 0 01-.277.634c-.103.211-.216.425-.34.642-.125.216-.262.441-.41.676l-.64-.397c.176-.276.348-.565.516-.868.173-.312.324-.636.451-.968a6.41 6.41 0 00.439-2.382l.827.015c.008.232.034.463.076.69.045.249.103.505.175.768a12.122 12.122 0 00.536 1.544c.102.24.204.462.309.667.09.178.19.352.299.519l-.638.398z"/></mask><path d="M35.423 153.873a6.81 6.81 0 01-.27-.468 9.49 9.49 0 01-.295-.618c-.1-.226-.196-.467-.29-.724a10.203 10.203 0 01-.248-.785 7.518 7.518 0 01-.22.657 8.354 8.354 0 01-.277.634c-.103.211-.216.425-.34.642-.125.216-.262.441-.41.676l-.64-.397c.176-.276.348-.565.516-.868.173-.312.324-.636.451-.968a6.41 6.41 0 00.439-2.382l.827.015c.008.232.034.463.076.69.045.249.103.505.175.768a12.122 12.122 0 00.536 1.544c.102.24.204.462.309.667.09.178.19.352.299.519l-.638.398z" fill="#C6C6C6"/><path d="M35.423 153.873l-.841.54.533.829.836-.521-.528-.848zm-.27-.468l.885-.468-.884.468zm-.295-.618l.915-.402v-.001l-.915.403zm-.29-.724l.94-.341v-.001l-.94.342zm-.248-.785l.965-.264-.943-3.452-.984 3.441.962.275zm-.22.657l.931.362-.932-.362zm-.277.634l.9.437v-.001l-.9-.436zm-.34.642l.866.499v-.001l-.867-.498zm-.41.676l-.526.851.844.522.529-.84-.846-.533zm-.64-.397l-.844-.538-.546.855.863.534.526-.851zm.516-.868l.874.486.001-.002-.875-.484zm.451-.968l.934.359v-.002l-.934-.357zm.32-1.105l.98.196v-.003l-.98-.193zm.12-1.277l.017-.999-1.024-.019.006 1.025 1-.007zm.826.015l1-.035-.034-.947-.948-.017-.018.999zm.076.69l.985-.176-.002-.007-.983.183zm.175.768l.964-.264v-.001l-.964.265zm.246.789l-.944.33v.001l.944-.331zm.599 1.422l.894-.448-.004-.007-.89.455zm.299.519l.528.849.87-.541-.562-.856-.836.548zm.203-.143a5.443 5.443 0 01-.226-.395l-1.768.935c.106.202.21.384.312.541l1.682-1.081zm-.226-.395a8.265 8.265 0 01-.265-.552l-1.831.803c.107.245.216.474.328.684l1.768-.935zm-.265-.553c-.09-.204-.178-.424-.264-.662l-1.88.682c.1.275.204.538.314.786l1.83-.806zm-.264-.663a8.914 8.914 0 01-.224-.707l-1.93.527c.08.293.171.58.274.863l1.88-.683zm-2.15-.718c-.058.199-.122.389-.192.571l1.865.723c.093-.241.176-.489.25-.744l-1.924-.55zm-.192.57a7.453 7.453 0 01-.244.56l1.8.872c.113-.235.216-.47.309-.708l-1.865-.724zm-.244.56a9.3 9.3 0 01-.308.579l1.734.997c.136-.235.26-.47.373-.703l-1.799-.873zm-.307.578c-.117.204-.247.418-.389.643l1.693 1.066c.154-.245.297-.481.428-.71l-1.732-.999zm.984.326l-.642-.397-1.052 1.701.641.397 1.053-1.701zm-.325.992c.188-.295.37-.602.548-.921l-1.748-.971c-.159.285-.32.557-.486.815l1.686 1.077zm.549-.923c.195-.352.366-.718.51-1.093l-1.867-.718a6.65 6.65 0 01-.393.843l1.75.968zm.51-1.095a7.88 7.88 0 00.366-1.266l-1.961-.392a5.882 5.882 0 01-.273.944l1.868.714zm.367-1.269c.095-.486.142-.981.138-1.476l-2 .013c.003.362-.031.722-.101 1.078l1.963.385zm-.88-.47l.827.015.036-1.999-.827-.015-.036 1.999zm-.154-.949c.01.281.04.561.092.838l1.966-.367a3.667 3.667 0 01-.06-.542l-1.998.071zm.09.831c.051.28.116.565.195.855l1.93-.529a7.605 7.605 0 01-.155-.679l-1.97.353zm.195.855c.078.285.167.57.267.855l1.888-.66c-.085-.242-.16-.483-.226-.723l-1.929.528zm.267.856c.099.281.203.553.313.813l1.843-.778a11.656 11.656 0 01-.268-.697l-1.888.662zm.313.813c.11.26.223.504.34.732l1.78-.909a9.106 9.106 0 01-.278-.601l-1.842.778zm.336.725c.106.214.226.421.356.62l1.673-1.096a4.15 4.15 0 01-.241-.419l-1.788.895zm.664-.777l-.637.398 1.056 1.697.638-.397-1.056-1.698z" fill="#C6C6C6" mask="url(#a)"/><path d="M38.334 152.659a6.62 6.62 0 00-.04-.221h0v-.001a6.77 6.77 0 00-.06-.273l.226.002c-.045.16-.086.321-.123.483v-.001l-.003.011zM45.602 149.715c.064.169.117.341.16.516.044.18.082.369.112.566l-.511-.03m.24-1.052l-.004-.009-.045.027.048-.018zm0 0l-.05.019-.185.111a5.709 5.709 0 01.138.448v.001c.038.142.07.285.096.43 0 0 0 0 0 0l-.24.044m0 0v-.001m0 .001l-.252.046m.253-.046l.017.104h0v.002c.03.193.06.389.087.589m-.104-.696l-.253.047m.253-.047a5.752 5.752 0 00-.087-.416v-.002h0a4.014 4.014 0 00-.068-.245l-.253.078.253-.078a3.55 3.55 0 00-.046-.136l-.176.106-.258-.428m.382 1.168a5.453 5.453 0 00-.155-.632 2.847 2.847 0 00-.227-.536m.382 1.168c.041.224.074.46.097.707l.347 1.526v-.04m-.826-3.361l.642-.385m-.642.385l.344-.189.298-.196m0 0c.037.055.07.112.102.171l-.102-.171zm.097 2.202l.004.033s0 0 0 0c.017.132.03.278.041.436h0c.008.109.014.219.02.33 0 0 0 0 0 0l.008.206v.001c.007.182.012.361.014.538m-.087-1.544v-.002l.234-.03m-.234.032v.002l.234-.032m-.147 1.574s0 0 0 0l.228-.003m-.228.003s0 0 0 0l.228-.002m-.081-1.574l.082 1.614v-.001-.039m-.082-1.574v.002m0-.002l.261-.035-.261.037m0 0l.004.04v.001c.014.146.026.294.036.442v.001l.019.333v.001l.009.208v.001c.006.18.011.361.013.544m0 0l.272-.002-.272.003m0-.001v.001m.274.317h-.27m.27 0h-.27m.27 0v.189m0-.189l-.268.5m-.002-.5l.001.189m-.001-.189h-.23m.231.189l-.231-.189m.231.189h.27m-.27 0v.311m-.231-.5v.5h-.268v-.5h.268zm.232.5h.269v-.311m-.27.311v-.31l.27-.001" fill="#C6C6C6" stroke="#C6C6C6"/><mask id="b" fill="#fff"><path d="M46.898 152.048c0-.143.03-.284.087-.415a1.087 1.087 0 011.01-.658c.147 0 .292.028.426.085a1.1 1.1 0 01.588.573 1.046 1.046 0 01-.237 1.172 1.152 1.152 0 01-.778.312c-.147 0-.292-.029-.427-.085a1.075 1.075 0 01-.582-.567 1.019 1.019 0 01-.087-.417zm.602 0c0 .064.013.128.04.188a.499.499 0 00.807.152.473.473 0 00.108-.529.515.515 0 00-.266-.259.51.51 0 00-.386 0 .509.509 0 00-.263.259.455.455 0 00-.04.189z"/></mask><path d="M46.898 152.048c0-.143.03-.284.087-.415a1.087 1.087 0 011.01-.658c.147 0 .292.028.426.085a1.1 1.1 0 01.588.573 1.046 1.046 0 01-.237 1.172 1.152 1.152 0 01-.778.312c-.147 0-.292-.029-.427-.085a1.075 1.075 0 01-.582-.567 1.019 1.019 0 01-.087-.417zm.602 0c0 .064.013.128.04.188a.499.499 0 00.807.152.473.473 0 00.108-.529.515.515 0 00-.266-.259.51.51 0 00-.386 0 .509.509 0 00-.263.259.455.455 0 00-.04.189z" fill="#C6C6C6"/><path d="M46.985 151.633l.915.404.001-.004-.916-.4zm.234-.342l-.704-.71-.001.001.705.709zm.777-.316l-.004 1H48l-.005-1zm.425.085l-.387.922.004.001.383-.923zm.588.573l.917-.398v-.002l-.917.4zm0 .832l.917.4v-.001l-.917-.399zm-.237.34l.69.724.002-.003-.692-.721zm-.35.227l.38.925.002-.001-.383-.924zm-.428.085v1-1zm-.427-.085l.381-.924v-.001l-.38.925zm-.582-.567l.918-.397-.003-.005-.915.402zm.555-.229l.914-.406-.002-.003-.912.409zm.263.256l-.39.921.006.003.384-.924zm.193.039v1-1zm.193-.039l.383.924.01-.004-.393-.92zm.158-.104l.688.726.003-.003-.691-.723zm.108-.152l.912.409.004-.009-.916-.4zm.04-.188h1-1zm-.04-.189l.916-.4-.005-.01-.911.41zm-.266-.259l.392-.919-.01-.004-.382.923zm-.193-.038v-1 1zm-.193.038l-.384-.923-.009.004.393.919zm-.157.106l-.705-.709-.002.001.707.708zm-.106.153l-.912-.41v.002l.912.408zm.358.184l.002-.006-1.83-.808c-.114.259-.173.54-.172.824l2-.01zm.003-.01a.11.11 0 01.024-.033l-1.411-1.418a2.11 2.11 0 00-.445.651l1.832.8zm.023-.032a.076.076 0 01.027-.018l-.753-1.853a2.1 2.1 0 00-.683.451l1.409 1.42zm.027-.018a.106.106 0 01.04-.008l.008-2a2.117 2.117 0 00-.8.155l.752 1.853zm.05-.008c.012 0 .023.003.033.007l.774-1.844a2.09 2.09 0 00-.818-.163l.01 2zm.037.008c.03.013.048.034.055.05l1.832-.8c-.218-.5-.622-.89-1.12-1.097l-.767 1.847zm.054.048a.047.047 0 01.004.018h2c0-.28-.058-.557-.17-.814l-1.834.796zm.004.018a.04.04 0 01-.004.018l1.834.797c.112-.257.17-.534.17-.815h-2zm-.003.016a.061.061 0 01-.013.018l1.384 1.443c.196-.187.353-.411.462-.661l-1.833-.8zm-.01.015a.163.163 0 01-.045.029l.766 1.847c.243-.1.466-.245.657-.427l-1.378-1.449zm-.043.028a.115.115 0 01-.046.009v2c.277 0 .552-.054.808-.16l-.762-1.849zm-.046.009a.115.115 0 01-.046-.009l-.762 1.849c.256.106.531.16.808.16v-2zm-.047-.01a.076.076 0 01-.044-.039l-1.836.795c.217.5.621.89 1.12 1.094l.76-1.85zm-.047-.044a.024.024 0 01-.002-.009l-2-.013c-.001.285.057.567.172.827l1.83-.805zm-1.4-.025c-.002.21.042.416.127.607l1.825-.818c.032.071.05.15.048.23l-2-.019zm.126.604a1.5 1.5 0 00.787.771l.78-1.842a.5.5 0 01.26.259l-1.827.812zm.793.774c.183.076.38.115.577.115v-2a.5.5 0 01.19.037l-.767 1.848zm.577.115c.197 0 .393-.039.576-.115l-.767-1.848a.5.5 0 01.19-.037v2zm.585-.119c.167-.072.321-.172.454-.298l-1.376-1.451a.48.48 0 01.137-.091l.785 1.84zm.457-.301c.138-.132.25-.29.33-.466l-1.826-.819a.522.522 0 01.113-.16l1.383 1.445zm.333-.475c.081-.185.123-.385.123-.588h-2c0-.074.015-.146.044-.213l1.833.801zm.123-.588c0-.203-.042-.404-.123-.589l-1.833.801a.53.53 0 01-.044-.212h2zm-.128-.599a1.51 1.51 0 00-.785-.768l-.785 1.839a.488.488 0 01-.253-.25l1.823-.821zm-.794-.772a1.502 1.502 0 00-.576-.115v2a.501.501 0 01-.19-.038l.766-1.847zm-.576-.115c-.198 0-.394.039-.577.115l.767 1.847a.501.501 0 01-.19.038v-2zm-.586.119a1.491 1.491 0 00-.47.316l1.412 1.417a.494.494 0 01-.157.106l-.785-1.839zm-.47.317c-.13.13-.236.282-.312.451l1.824.821a.484.484 0 01-.099.143l-1.414-1.415zm-.313.453c-.085.19-.129.396-.127.606l2-.019c.001.08-.016.159-.048.23l-1.825-.817z" fill="#C6C6C6" mask="url(#b)"/><mask id="c" fill="#fff"><path d="M49.907 152.048c0-.143.029-.284.087-.415a1.087 1.087 0 011.01-.658c.147 0 .291.028.426.085a1.1 1.1 0 01.588.573 1.044 1.044 0 01-.237 1.172 1.152 1.152 0 01-.778.312c-.147 0-.292-.029-.427-.085a1.076 1.076 0 01-.582-.567 1.02 1.02 0 01-.087-.417zm.602 0c0 .064.013.128.04.188a.499.499 0 00.807.152.473.473 0 00.108-.529.515.515 0 00-.267-.259.51.51 0 00-.386 0 .507.507 0 00-.263.259.455.455 0 00-.039.189z"/></mask><path d="M49.907 152.048c0-.143.029-.284.087-.415a1.087 1.087 0 011.01-.658c.147 0 .291.028.426.085a1.1 1.1 0 01.588.573 1.044 1.044 0 01-.237 1.172 1.152 1.152 0 01-.778.312c-.147 0-.292-.029-.427-.085a1.076 1.076 0 01-.582-.567 1.02 1.02 0 01-.087-.417zm.602 0c0 .064.013.128.04.188a.499.499 0 00.807.152.473.473 0 00.108-.529.515.515 0 00-.267-.259.51.51 0 00-.386 0 .507.507 0 00-.263.259.455.455 0 00-.039.189z" fill="#C6C6C6"/><path d="M49.994 151.633l.915.404.001-.004-.916-.4zm.234-.342l-.704-.71-.002.001.706.709zm.776-.316l-.003 1h.009l-.006-1zm.426.085l-.387.922.004.001.383-.923zm.588.573l.917-.398v-.002l-.917.4zm0 .832l.916.4.001-.001-.917-.399zm-.237.34l.689.724.003-.003-.692-.721zm-.351.227l.381.925.002-.001-.383-.924zm-.427.085v1-1zm-.427-.085l.381-.924-.001-.001-.38.925zm-.582-.567l.917-.397-.002-.005-.915.402zm.555-.229l.913-.406v-.003l-.913.409zm.262.256l-.39.921.007.003.383-.924zm.193.039v1-1zm.193-.039l.384.924.01-.004-.394-.92zm.159-.104l.688.726.003-.003-.691-.723zm.108-.152l.912.409.004-.009-.916-.4zm.039-.188h1-1zm-.04-.189l.917-.4-.005-.01-.911.41zm-.266-.259l.393-.919-.01-.004-.383.923zm-.193-.038v-1 1zm-.193.038l-.383-.923-.009.004.392.919zm-.156.106l-.706-.709v.001l.706.708zm-.106.153l-.912-.41-.001.002.913.408zm.358.184l.002-.006-1.83-.808c-.114.259-.173.54-.172.824l2-.01zm.003-.01a.109.109 0 01.024-.033l-1.412-1.418a2.11 2.11 0 00-.444.651l1.832.8zm.022-.032a.078.078 0 01.028-.018l-.753-1.853a2.1 2.1 0 00-.683.451l1.408 1.42zm.028-.018a.106.106 0 01.04-.008l.008-2a2.117 2.117 0 00-.801.155l.753 1.853zm.05-.008c.012 0 .023.003.033.007l.774-1.844a2.09 2.09 0 00-.818-.163l.01 2zm.037.008c.03.013.047.034.055.05l1.832-.8c-.218-.5-.622-.89-1.12-1.097l-.767 1.847zm.054.048a.049.049 0 01.004.018h2c0-.28-.058-.557-.17-.814l-1.834.796zm.004.018a.042.042 0 01-.004.018l1.834.797c.112-.257.17-.534.17-.815h-2zm-.004.016a.063.063 0 01-.012.018l1.384 1.443c.195-.187.353-.411.461-.661l-1.833-.8zm-.009.015a.163.163 0 01-.045.029l.766 1.847c.243-.101.466-.245.657-.427l-1.378-1.449zm-.043.028a.114.114 0 01-.046.009v2c.277 0 .552-.054.808-.16l-.762-1.849zm-.046.009a.114.114 0 01-.046-.009l-.762 1.849c.256.106.53.16.808.16v-2zm-.047-.01a.076.076 0 01-.045-.039l-1.835.795c.217.5.621.89 1.12 1.094l.76-1.85zm-.047-.044a.024.024 0 01-.002-.009l-2-.013c-.002.285.057.567.172.827l1.83-.805zm-1.4-.025c-.002.21.042.416.127.607l1.825-.818c.032.071.049.15.048.23l-2-.019zm.126.604a1.5 1.5 0 00.787.771l.78-1.842a.5.5 0 01.26.259l-1.827.812zm.793.774c.183.076.379.115.576.115v-2a.5.5 0 01.19.037l-.766 1.848zm.576.115c.198 0 .394-.039.577-.115l-.767-1.848a.5.5 0 01.19-.037v2zm.586-.119a1.55 1.55 0 00.454-.298l-1.377-1.451a.48.48 0 01.138-.091l.785 1.84zm.457-.301c.138-.132.25-.29.329-.466l-1.825-.819a.522.522 0 01.113-.16l1.383 1.445zm.333-.475c.08-.185.123-.385.123-.588h-2c0-.074.015-.146.044-.213l1.833.801zm.123-.588c0-.203-.042-.404-.123-.589l-1.833.801a.532.532 0 01-.044-.212h2zm-.128-.599a1.51 1.51 0 00-.785-.768l-.785 1.839a.488.488 0 01-.253-.25l1.823-.821zm-.794-.772a1.502 1.502 0 00-.577-.115v2a.501.501 0 01-.19-.038l.767-1.847zm-.577-.115c-.197 0-.393.039-.576.115l.767 1.847a.501.501 0 01-.19.038v-2zm-.585.119a1.491 1.491 0 00-.47.316l1.412 1.417a.492.492 0 01-.157.106l-.785-1.839zm-.47.317c-.13.13-.236.282-.312.451l1.823.821a.481.481 0 01-.098.143l-1.414-1.415zm-.313.453c-.085.19-.129.396-.127.606l2-.019c0 .08-.016.159-.048.23l-1.825-.817z" fill="#C6C6C6" mask="url(#c)"/><path d="M42.842 149.149l-2.566 5.901" stroke="#C6C6C6" stroke-width=".2" stroke-linecap="round" stroke-linejoin="round"/><path d="M230.17 27.507h-86.195V158.74h86.195V27.507z" fill="#CFEAFF"/><path d="M230.238 56.873s-21.292-17.418-39.873 5.345c-18.582 22.763-23.808-34.207-46.648-26.096l.258 122.618h86.196l.067-101.867z" fill="#EAF4FE"/><path d="M177.606 108.457h-30.05v7.886h30.05v-7.886z" fill="#666"/><path d="M177.606 108.424h-30.05v4.052h30.05v-4.052z" fill="#999"/><path d="M246.496 114.786l-5.29 6.729v-7.42s1.548 1.163 5.29.691z" fill="#FCC8D7"/><path d="M133.522 17.258V181h107.619V17.258H133.522zM230.18 158.74h-86.205V27.578h86.205V158.74z" fill="#fff" stroke="#E0E0E0" stroke-width=".5" stroke-linecap="round" stroke-linejoin="round"/><path d="M171.993 81.764h-28.115v7.886h28.115v-7.886z" fill="#666"/><path d="M213.656 37.16s.242 7.167-3.581 7.167c0 0 3.823.143 3.675 6.441 0 0 .148-6.298 3.97-6.354 0 0-4.016.455-4.064-7.254z" fill="#33B1FF" stroke="#3DDBD9" stroke-miterlimit="10"/><path d="M159.654 45.366l-6.001 1.698M157.524 49.139l-1.742-5.848" stroke="#D2A106" stroke-width=".75" stroke-linecap="round" stroke-linejoin="round"/><path d="M207.331 60.495l4.168-2.848M163.78 99.166l4.169-2.848" stroke="#FF2227" stroke-linecap="round" stroke-linejoin="round"/><path d="M147.759 162.685l1.483 2.928 3.317.47-2.4 2.28.566 3.22-2.966-1.521-2.967 1.521.567-3.22-2.4-2.28 3.316-.47 1.484-2.928z" fill="#FFDA00" stroke="#C6C6C6" stroke-width=".1" stroke-miterlimit="10"/><path d="M176.557 52.912l-32.518 1.886v7.923l32.97-2.075-.452-7.734z" fill="#666"/><path d="M159.008 67.249s-3.355-.44-4.387-.252c-1.032.189-6.581 4.779-8.775 6.854 1.858.83 3.467 2.11 4.675 3.716a11.518 11.518 0 012.229 5.465l1.29-1.384 5.097 2.956s-3.71-6.917-.129-17.355z" fill="#FCC8D7"/><path d="M176.557 52.912l-32.518 1.886v4.905l32.647-1.98-.129-4.811z" fill="#999"/><path d="M179.719 31.972l-35.744.44.056 7.012 32.01-1.603.903 28.17h4.646l-1.871-34.019z" fill="#666"/><path d="M183.719 28.577h-39.744v3.836l35.744-.44c2.387-3.082 4-3.396 4-3.396z" fill="#999"/><path d="M183.719 28.577l-4 3.395 1.871 34.019 4.258-.126-2.129-37.288z" fill="#999"/><path d="M185.848 65.865l-26.324.44s-5.161 9.495.194 19.493a5.199 5.199 0 001.484-.817c.839-.629 1.419 2.2 9.742 2.83a240.148 240.148 0 005.936 26.661l-1.29 16.349s24.388 2.138 54.583-2.578l-.016-60.24-21.017-3.584s-5.87 6.967-14.259 7.106c-7.613.125-9.033-5.66-9.033-5.66z" fill="#0062FF"/><path d="M225.507 171.95c2.647 0 4.793-2.091 4.793-4.671s-2.146-4.672-4.793-4.672c-2.648 0-4.794 2.092-4.794 4.672 0 2.58 2.146 4.671 4.794 4.671z" fill="#EDC603"/><path d="M226.136 171.95c2.647 0 4.794-2.091 4.794-4.671s-2.147-4.672-4.794-4.672-4.793 2.092-4.793 4.672c0 2.58 2.146 4.671 4.793 4.671z" fill="#FFDA00"/><g style="mix-blend-mode:multiply"><path d="M226.519 168.867l-.003-.614a20.773 20.773 0 00-.018-.617c-.01-.203-.024-.403-.043-.599a6.199 6.199 0 00-.077-.562 4.148 4.148 0 00-.124-.503 2.24 2.24 0 00-.18-.426l.511-.306c.075.113.137.235.185.362.05.134.093.27.127.409.035.144.065.294.089.45.024.156.048.315.07.477.016.122.029.255.039.399a15.252 15.252 0 01.034.877l.002.405v.248h-.612z" fill="#997D05" opacity=".34"/></g><path d="M225.951 168.867l-.003-.614a20.773 20.773 0 00-.018-.617c-.01-.203-.024-.403-.043-.599a6.199 6.199 0 00-.077-.562 4.34 4.34 0 00-.123-.503 2.31 2.31 0 00-.181-.426l.511-.306c.075.113.137.235.185.362.05.134.093.27.127.409.035.144.065.294.089.45.024.156.048.315.07.477.016.122.029.255.039.399a15.252 15.252 0 01.034.877l.002.405v.248h-.612z" fill="#FF0"/><path d="M228.912 169.985a3.759 3.759 0 000-5.413c-1.533-1.494-4.019-1.494-5.553.001a3.76 3.76 0 000 5.412c1.534 1.494 4.02 1.494 5.553 0z" stroke="#FF0" stroke-width=".75" stroke-linecap="round" stroke-linejoin="round" stroke-dasharray="4.34 4.34"/><path d="M214.377 171.95c2.647 0 4.793-2.091 4.793-4.671s-2.146-4.672-4.793-4.672c-2.647 0-4.794 2.092-4.794 4.672 0 2.58 2.147 4.671 4.794 4.671z" fill="#EDC603"/><path d="M215.006 171.95c2.647 0 4.793-2.091 4.793-4.671s-2.146-4.672-4.793-4.672c-2.648 0-4.794 2.092-4.794 4.672 0 2.58 2.146 4.671 4.794 4.671z" fill="#FFDA00"/><g style="mix-blend-mode:multiply"><path d="M215.389 168.867c0-.201-.001-.406-.004-.614a15.655 15.655 0 00-.06-1.216 6.567 6.567 0 00-.078-.562 4.34 4.34 0 00-.123-.503 2.306 2.306 0 00-.18-.426l.51-.306c.075.113.137.235.185.362.051.134.093.27.127.409.035.144.065.294.09.45.024.156.047.315.07.477.016.122.029.255.038.399.01.144.018.29.023.438a29.487 29.487 0 01.014.844v.248h-.612z" fill="#997D05" opacity=".34"/></g><path d="M214.822 168.867c0-.201-.001-.406-.004-.614a15.655 15.655 0 00-.06-1.216 6.567 6.567 0 00-.078-.562 4.34 4.34 0 00-.123-.503 2.24 2.24 0 00-.18-.426l.51-.306c.075.113.137.235.185.362.051.134.093.27.127.409.036.144.065.294.09.45.024.156.047.315.07.477.016.122.029.255.038.399.01.144.018.29.023.438a29.487 29.487 0 01.014.844v.248h-.612z" fill="#FF0"/><path d="M216.509 170.814c2.003-.808 2.955-3.047 2.125-5-.83-1.953-3.127-2.88-5.131-2.071-2.003.809-2.955 3.048-2.125 5 .83 1.953 3.127 2.88 5.131 2.071z" stroke="#FF0" stroke-width=".75" stroke-linecap="round" stroke-linejoin="round" stroke-dasharray="4.34 4.34"/><path d="M203.247 171.95c2.647 0 4.793-2.091 4.793-4.671s-2.146-4.672-4.793-4.672c-2.647 0-4.793 2.092-4.793 4.672 0 2.58 2.146 4.671 4.793 4.671z" fill="#EDC603"/><path d="M203.876 171.95c2.648 0 4.794-2.091 4.794-4.671s-2.146-4.672-4.794-4.672c-2.647 0-4.793 2.092-4.793 4.672 0 2.58 2.146 4.671 4.793 4.671z" fill="#FFDA00"/><g style="mix-blend-mode:multiply"><path d="M204.26 168.867c0-.201-.002-.406-.004-.614a20.773 20.773 0 00-.018-.617c-.01-.203-.024-.403-.043-.599a6.199 6.199 0 00-.077-.562 4.34 4.34 0 00-.123-.503 2.31 2.31 0 00-.181-.426l.511-.306c.075.113.137.235.185.362.05.134.093.27.127.409.035.144.065.294.089.45.025.156.048.315.07.477.017.122.029.255.039.399a15.252 15.252 0 01.034.877c.002.145.002.28.002.405v.248h-.611z" fill="#997D05" opacity=".34"/></g><path d="M203.692 168.867c0-.201-.001-.406-.004-.614a15.655 15.655 0 00-.06-1.216 6.575 6.575 0 00-.077-.562 4.343 4.343 0 00-.124-.503 2.24 2.24 0 00-.18-.426l.51-.306c.076.113.138.235.185.362.051.134.093.27.127.409.036.144.066.294.09.45.024.156.047.315.07.477.016.122.029.255.039.399a20.003 20.003 0 01.034.877l.002.405v.248h-.612z" fill="#FF0"/><path d="M206.653 169.985a3.76 3.76 0 000-5.413c-1.533-1.494-4.02-1.494-5.553.001a3.758 3.758 0 000 5.412c1.533 1.494 4.02 1.494 5.553 0z" stroke="#FF0" stroke-width=".75" stroke-linecap="round" stroke-linejoin="round" stroke-dasharray="4.34 4.34"/><path d="M192.118 171.95c2.647 0 4.793-2.091 4.793-4.671s-2.146-4.672-4.793-4.672c-2.648 0-4.794 2.092-4.794 4.672 0 2.58 2.146 4.671 4.794 4.671z" fill="#EDC603"/><path d="M192.746 171.95c2.648 0 4.794-2.091 4.794-4.671s-2.146-4.672-4.794-4.672c-2.647 0-4.793 2.092-4.793 4.672 0 2.58 2.146 4.671 4.793 4.671z" fill="#FFDA00"/><g style="mix-blend-mode:multiply"><path d="M193.13 168.867c0-.201-.002-.406-.004-.614a20.773 20.773 0 00-.018-.617c-.01-.203-.024-.403-.043-.599a6.199 6.199 0 00-.077-.562 4.34 4.34 0 00-.123-.503 2.306 2.306 0 00-.18-.426l.51-.306c.075.113.137.235.185.362.05.134.093.27.127.409.035.144.065.294.089.45.025.156.048.315.07.477.017.122.029.255.039.399a15.252 15.252 0 01.034.877c.002.145.002.28.002.405v.248h-.611z" fill="#997D05" opacity=".34"/></g><path d="M192.562 168.867l-.003-.614a17.84 17.84 0 00-.019-.617 11.486 11.486 0 00-.042-.599 6.575 6.575 0 00-.077-.562 4.148 4.148 0 00-.124-.503 2.24 2.24 0 00-.18-.426l.511-.306c.075.113.137.235.185.362.05.134.092.27.126.409.036.144.066.294.09.45.024.156.048.315.07.477.016.122.029.255.039.399a20.003 20.003 0 01.034.877l.002.405v.248h-.612z" fill="#FF0"/><path d="M194.249 170.814c2.004-.808 2.955-3.047 2.125-5-.83-1.953-3.127-2.88-5.13-2.071-2.004.809-2.955 3.048-2.126 5 .83 1.953 3.127 2.88 5.131 2.071z" stroke="#FF0" stroke-width=".75" stroke-linecap="round" stroke-linejoin="round" stroke-dasharray="4.34 4.34"/><path d="M177.202 133.022l.645 25.656 23.356.062-.387-15.405 1.871.062.516 15.281 26.977.062-.007-28.359s-24.953 5.817-52.971 2.641z" fill="#E0E0E0"/><path d="M230.173 130.381s-23.873 6.225-52.971 2.641v-2.075a300.043 300.043 0 0052.971-2.704v2.138z" fill="#01066D"/><path d="M182.009 131.128s1.911-9.951 5.153-9.291c3.631.739-.605 10.446-.605 10.446s.896.377.71.991c-.058.19-.316.3-1 .212a45.005 45.005 0 01-4.937-1.172.713.713 0 01-.398-.264.679.679 0 01-.133-.451c.032-.29.371-.566 1.21-.471z" fill="#2D0709"/><path d="M230.108 134.657s-35.873 2.83-52.906.629v1.76s35.357 1.006 52.971-1.131l-.065-1.258z" fill="#FFDA01"/><path d="M147.524 106.235l.645 52.442-4.194.063-.064-56.404 3.613 3.899z" fill="#999"/><path d="M222.852 132.662s-1.413-10.029 1.877-10.401c3.684-.417 2.814 10.097 2.814 10.097s.971.082.994.721c.007.199-.203.382-.88.509a44.906 44.906 0 01-5.064.409.723.723 0 01-.463-.128.688.688 0 01-.272-.387c-.064-.285.168-.651.994-.82z" fill="#FF2227"/><path d="M224.729 122.261c3.684-.417 2.813 10.097 2.813 10.097s.972.082.995.721c.007.199-.203.382-.88.509-.896.145-1.8.242-2.707.29l-.221-11.617z" fill="#ED2034"/><path d="M230.17 27.507h-86.195V158.74h86.195V27.507z" stroke="#E0E0E0" stroke-width=".5" stroke-linecap="round" stroke-linejoin="round"/><path d="M182.751 56.81l3.097 9.055a10.293 10.293 0 003.435 3.013 10.593 10.593 0 004.436 1.263c5.42.377 10.452-2.64 13.291-6.162 0 0-6.581-1.572-6.71-3.647-.203-3.266-.129-12.576-.129-12.576s-13.807-2.767-17.42 9.054z" fill="#FCC8D7"/><path d="M177.073 42.977s.645 17.103 13.291 16.726c12.646-.377 10.065-19.619 10.065-19.619s-12.387-1.132-23.356 2.893z" fill="#FCC8D7"/><path d="M200.042 50.522s0 10.061-9.678 11.696c0 0-.258 4.779 1.162 7.546 0 0-4.646-1.51-5.678-3.899l-3.097-9.055s2.741 3.714 9.549 2.641c6.387-1.006 7.742-8.929 7.742-8.929z" fill="#000"/><path d="M154.04 81.648s3.79-4.024.629-14.462" stroke="#C6C6C6" stroke-width=".2" stroke-linecap="round" stroke-linejoin="round"/><path d="M170.234 80.957c-.013 2.302.225 4.6.711 6.854" stroke="#fff" stroke-linecap="round" stroke-linejoin="round"/><path d="M139.201 72.782s11.549-1.195 13.549 10.25l-.71 4.653s4 4.15 4.065 9.998c.064 5.848-.258 6.791-1.871 6.539-1.613-.251-1.678-8.174-2.903-8.363-1.226-.188 2.064 12.576-.775 12.576s-2.839-9.998-3.032-11.255c0 0 1.419 9.998-.71 9.935-2.129-.063-3.419-5.093-3.548-11.759 0 0 1.225 9.664-.775 9.747-3.032.126-3.419-6.288-3.484-10.376 0 0 1.036 9.541-.645 9.621-2.645.126-3.29-7.734-3.226-10.815.065-3.082 3.42-8.175 3.742-9.684.323-1.51-.838-7.106.323-11.067z" fill="#E0E0E0"/><path d="M152.75 83.032l-.71 4.653s4 4.15 4.065 9.998c.064 5.848-.258 6.791-1.871 6.54-1.613-.252-1.678-8.175-2.904-8.363-1.226-.189 2.065 12.576-.774 12.576s-2.839-9.998-3.032-11.256c0 0 1.419 9.998-.71 9.935 0 0-2.323-6.854-2.033-11.381.291-4.528 1.646-4.245 1.259-9.715-.388-5.47.483-10.187 2.516-10.753 0 0 3.936 3.459 4.194 7.766z" fill="#C6C6C6"/><path d="M152.258 87.575s-7.549-7.656-13.356-5.706M136.701 88.424l10.967 3.533a6.26 6.26 0 004.611-.317l2.213-1.062M134.983 93.848l16.307 3.537M151.62 103.838l-3.379-.087M147.903 104.412l-3.896-.826M143.685 102.328l-4-.377M139.428 100.946l-3.549-.19" stroke="#C6C6C6" stroke-width=".2" stroke-linecap="round" stroke-linejoin="round"/><path d="M182.106 41.467s.774 2.39-2.452 3.019c-3.226.628 1.678 3.961-1.226 5.722a31.272 31.272 0 01-1.355-7.232l5.033-1.509zM196.284 39.99s-.371 2.232 1.242 2.61c1.613.377 1.806 1.823 1.871 3.018.065 1.194.065 2.012.774 2.138 0 0 .734.652.258-7.672l-4.145-.094z" fill="#000"/><path d="M189.364 42.136s-1.209.094-.992 1.768c.218 1.674.438 2.296-.798 3.23-.34.21-.59.532-.703.907-.114.376-.083.779.086 1.134.168.355.464.638.832.797.367.158.781.18 1.164.063" stroke="#000" stroke-width=".2" stroke-linecap="round" stroke-linejoin="round"/><path d="M189.416 49.129c.071-.265-.144-.549-.48-.634-.336-.086-.666.059-.737.323-.071.265.144.549.48.635.336.085.666-.06.737-.324zM195.422 48.088c-1.309 1.685-4.45 4.83-9.208 4.045a.83.83 0 00-.761.249.791.791 0 00-.187.76c.592 1.987 2.343 5.433 7.243 4.132 5.373-1.426 5.243-6.542 4.357-8.963a.808.808 0 00-.251-.355.838.838 0 00-.842-.13.824.824 0 00-.351.262z" fill="#000"/><path d="M197.151 52.575s-6.182.44-9.23 4.331c0 0 1.885 1.438 5.629.038 3.561-1.333 3.601-4.369 3.601-4.369z" fill="#FF2227"/><path d="M194.816 48.817l.684 1.591a.624.624 0 01-.027.456.646.646 0 01-.334.32l-6 2.695a.668.668 0 01-.721-.134.632.632 0 01-.143-.21l-.691-1.274s.301.006 1.026-.06c1.336-.12 3.747-.746 6.206-3.384z" fill="#fff"/><path d="M178.525 50.192s-2.581-1.022-3.032 1.493c-.452 2.515 3.823 2.798 4.694 2.17a32.004 32.004 0 01-1.662-3.663zM200.558 46.083s2.046-1.72 3.257.544c1.211 2.264-2.699 3.77-3.724 3.427.243-1.312.399-2.639.467-3.97z" fill="#FCC8D7"/><path d="M200.591 45.838a6.5 6.5 0 002.097-2.641c.677-1.667.161-2.924-2.258-3.113 0 0 .258 4.402.161 5.754zM177.074 42.977s-2.839 2.012-1.839 4.024a5.247 5.247 0 003 2.578 33.067 33.067 0 01-1.161-6.602z" fill="#E0E0E0"/><path d="M177.073 42.976s-.806-15.248 11.098-15.248 11.258 9.715 11.839 10.218c.581.503 2.791 2.704 2.807 3.364 0 0-.436-2.06-13.259-1.038a53.034 53.034 0 00-12.485 2.704z" fill="#0062FF"/><path d="M177.589 147.421l-29.549.221-.097-7.87 29.453-.022.193 7.671z" fill="#666"/><path d="M177.461 143.649l-29.438.157-.08-4.067 29.453.011.065 3.899z" fill="#999"/><path d="M205.752 131.985h-7.354c-.856 0-1.549.676-1.549 1.509v2.452c0 .833.693 1.509 1.549 1.509h7.354c.855 0 1.549-.676 1.549-1.509v-2.452c0-.833-.694-1.509-1.549-1.509z" fill="#B3B3B3"/><path d="M204.881 132.834h-5.612c-.856 0-1.549.676-1.549 1.509v.754c0 .834.693 1.51 1.549 1.51h5.612c.855 0 1.549-.676 1.549-1.51v-.754c0-.833-.694-1.509-1.549-1.509z" fill="#CCC"/><path d="M202.816 134.186h-1.483a.542.542 0 00-.549.534c0 .295.246.535.549.535h1.483c.303 0 .549-.24.549-.535a.542.542 0 00-.549-.534z" fill="#fff"/><path d="M250.174 99.38s3.806 2.139 3.677 4.34c-.129 2.2-3.355 10.564-7.355 11.067-4 .503-6.452-.189-5.871-2.83 0 0 12.291.817 9.549-12.576z" fill="#C6C6C6"/><path d="M241.287 78.834s4.693 5.455 5.79 7.719c1.097 2.264 3.081 10.599 3.387 14.18.355 4.15.258 11.475-9.839 11.224 0 0-.064-7.609-3.936-11.445-3.377-3.346-6.452-6.602-5.419-7.545 1.032-.944 3.935 1.132 5.936 3.018 0 0-4.968-5.596-5.936-6.288-.968-.692-2.452-2.704-1.42-3.584 1.033-.88 3.097.44 4.904 1.949 0 0-6.71-5.47-4.71-7.105 2-1.635 7.549 3.584 8.452 4.527 0 0-9.549-7.42-7.097-9.18 2.452-1.761 9.888 5.501 9.888 5.501v-2.97z" fill="#E0E0E0"/><path d="M236.528 77.836s.016 1.612-2.177 3.938M235.174 82.803s-.702 3.042-2.25 3.545M233.745 87.41s.072 2.562-1.412 3.694M233.625 93.234s-.129 2.146-1.419 2.9M245.384 83.763s-.387 8.803-7.485 18.298M248.569 91.238s-1.613 7.546-8.646 15.343" stroke="#C6C6C6" stroke-width=".2" stroke-linecap="round" stroke-linejoin="round"/><path d="M192.32 43.763v1.226c0 .22.09.43.25.586a.863.863 0 001.203 0 .82.82 0 00.249-.586v-1.226a.82.82 0 00-.249-.587.863.863 0 00-1.203 0 .818.818 0 00-.25.587zM182.932 44.99v1.225c0 .22.09.431.249.587a.863.863 0 001.204 0 .82.82 0 00.249-.587V44.99a.82.82 0 00-.249-.586.863.863 0 00-1.204 0 .82.82 0 00-.249.586z" fill="#000"/><path d="M185.849 65.865s.903 5.69 8.968 5.817c8.065.125 14.323-7.263 14.323-7.263l-2.129-.44s-4.774 6.54-13.291 6.162a11.282 11.282 0 01-4.403-1.322 10.975 10.975 0 01-3.468-2.954z" fill="#fff"/><path d="M207.62 88.754s-1.621 22.364-18.707 23.58c0 0 10.85-4.133 18.707-23.58z" fill="#C6C6C6"/><path d="M187.775 123.181s.532 3.16-2.081 8.984M186.88 122.993s-1.33 4.527-2.492 8.913" stroke="#000" stroke-linecap="round" stroke-linejoin="round"/><path d="M229.979 134.688s-6.065 3.49-20.904 1.101l20.904-1.101z" fill="#F4CC03"/><path d="M185.767 122.827s-1.742 1.934-2.952 8.607" stroke="#000" stroke-linecap="round" stroke-linejoin="round"/><path d="M221.867 120.32a5.584 5.584 0 00-.719-2.732 5.754 5.754 0 00-1.978-2.059c.176.54.265 1.103.264 1.67 0 2.41-1.553 4.364-3.468 4.364s-3.468-1.954-3.468-4.364c0-.534.08-1.066.237-1.577a5.731 5.731 0 00-1.948 2.189 5.577 5.577 0 00-.589 2.84 5.59 5.59 0 00.924 2.754 5.783 5.783 0 002.196 1.954l-.033 10.949c1.788.39 3.63.496 5.452.314v-11.263a5.777 5.777 0 002.286-2.094 5.583 5.583 0 00.844-2.945z" fill="#E6E6E6"/><path d="M216.107 136.575s.242.126 2.63.047v-11.263a5.787 5.787 0 002.22-1.989 5.56 5.56 0 00.249-5.674 5.74 5.74 0 00-2.037-2.167c.177.54.266 1.103.264 1.67 0 2.41-1.552 4.364-3.468 4.364-1.915 0-3.468-1.954-3.468-4.364 0 0-1.938 5.259 3.223 7.963l.387 11.146" fill="#CCC"/><path d="M216.107 133.211a.955.955 0 00.968-.943.956.956 0 00-.968-.944.956.956 0 00-.967.944c0 .521.433.943.967.943z" fill="#B3B3B3"/><path d="M224.455 133.91l.14 3.256 1.14-.245-.119-3.098-1.161.087z" fill="#E6E6E6"/><path d="M229.979 134.688s-12.23 2.499-20.338 1.381c0 0-2.115 19.779 13.086 19.044 3.798-.184 5.955-1.747 7.236-3.51 0 0 .092-16.479.016-16.915z" fill="#E0E0E0"/><path d="M225.616 133.823l-1.113.818-.048-.731 1.161-.087z" fill="#CCC"/><path d="M194.365 136.103s-12.323.818-20.195-1.383c0 0-4.192 20.346 9.226 20.562 11.743.189 11.291-8.615 10.969-19.179z" fill="#E0E0E0"/><path d="M174.17 134.72s3.42 1.336 20.195 1.383c0 0-11.71 2.846-20.195-1.383z" fill="#F4CC03"/><path d="M177.686 131.183s-.056-8.356 1.444-8.403c1.5-.047 1.04 8.536 1.04 8.536l-.209 5.243-2.283-.472.008-4.904zM183.117 132.802l-1.14 4.072 1.177.094 1.06-3.867-1.097-.299z" fill="#E6E6E6"/><path d="M184.226 133.077l-1.458.927.35-1.202 1.108.275z" fill="#CCC"/><path d="M187.26 137.042l3.109-11.743s.726-3.301 2.492-2.947c1.766.354.701 3.655.701 3.655l-3.197 10.772-3.105.263z" fill="#FF2227"/><path d="M188.526 136.936l-1.266.106 3.411-12.611s.726-3.301 2.492-2.948l-4.637 15.453z" fill="#ED2034"/><path d="M190.848 123.779l3.194.691s.795-2.63-.879-2.986c-1.476-.315-2.315 2.295-2.315 2.295z" fill="#F7696F"/><path d="M174.59 136.198s-2.226 17.355 8.226 18.392c10.452 1.038 11.13-8.772 10.936-16.695M210.011 137.235s.193 17.073 11.226 17.355c0 0 9.001.472 8.904-7.262" stroke="#C6C6C6" stroke-linecap="round" stroke-linejoin="round" stroke-dasharray="4 4"/><path d="M200.815 143.335l-.192-5.817" stroke="#AFD6F2" stroke-miterlimit="10"/><path d="M155.047 168.329a6.586 6.586 0 00.162.884c.038.152.084.302.137.45.034.094.072.187.115.278l.158-.137a4.753 4.753 0 01-.074-.212l-.001-.001a2.609 2.609 0 01-.032-.105h0a5.528 5.528 0 01-.089-.327s0 0 0 0l-.026-.111m-.35-.719l.18-.475a3.382 3.382 0 00.034.451v.001c.013.098.028.199.047.304l.019.104s0 0 0 0c.021.11.044.221.07.334m-.35-.719c-.005-.045-.01-.089-.013-.13l.013.13zm.35.719v.001l.271-.062-.271.061zm.136-.88c.003.034.006.069.011.106v.001c.009.091.022.186.039.286l.217-.039m-.267-.354l.135.818a6.18 6.18 0 01-.067-.322h0l-.018-.103.217-.039m-.267-.354l.213-.024m-.213.024l-.018-.521.004.202v.002l.002.119c.001.055.005.12.012.196l.213-.022m.054.378a5.124 5.124 0 01-.054-.378m.054.378l-.054-.378m.184 1.617l.121-.048-.001-.002-.122.046m.002.004l-.002-.004m.002.004l-.284.114-.002-.005m.286-.109l.033.066.003.005h0c.035.068.08.132.134.189l-.036.033-.231.167a1.567 1.567 0 01-.145-.247l-.001-.002a2.405 2.405 0 01-.043-.102m.284-.113l-.286.107.002.006m.284-.113a2.263 2.263 0 01-.071-.159l-.213.272M157.493 169.377l-.14.115a.84.84 0 01-.09-.212h0l-.001-.004-.006-.025.319.468a.668.668 0 01-.044-.029s0 0 0 0a.639.639 0 01-.144-.145l-.034-.052.14-.116zm0 0a.582.582 0 01-.098-.175l.528.312a.285.285 0 01-.111.025.345.345 0 01-.175-.044.497.497 0 01-.144-.118zm2.072.109a.414.414 0 01-.23.063.228.228 0 01-.147-.05l.377-.013zm0 0a.524.524 0 00.16-.158.726.726 0 00.092-.214m-.252.372l.281-.6m-.029.228a.925.925 0 00.029-.228m-.029.228l.178.043-.653.64a.638.638 0 00.349-.109l.003-.002a.66.66 0 00.206-.244v-.001a.824.824 0 00.071-.184l.002-.004h0l.022-.094-.178-.045zm.029-.228c0-.145-.023-.29-.068-.428l.068.428zm.03 1.275l-.117-.21-.415.346c.186-.001.369-.048.532-.136zm0 0c.145-.08.271-.192.367-.325l-.179-.128a1.038 1.038 0 01-.229.199l-.005.003h0a.769.769 0 01-.069.039l.115.212zm-1.582-3.73l.107-.162-.866 1.43.007-.015v-.001c.095-.2.202-.394.319-.583l.133.088-.133-.088.025-.039.001-.001c.115-.182.229-.36.343-.533l.064-.096zm1.77 3.276a.92.92 0 00.08-.106l.001-.002a1.16 1.16 0 00.127-.263l.001-.001c.011-.033.021-.066.029-.1l-.238.472z" fill="#C6C6C6" stroke="#C6C6C6"/><mask id="d" fill="#fff"><path d="M165.994 170.321c0-.259-.001-.523-.005-.792a23.112 23.112 0 00-.023-.797 17.182 17.182 0 00-.055-.774 8.153 8.153 0 00-.1-.726 5.583 5.583 0 00-.159-.649 2.888 2.888 0 00-.232-.55l.658-.396c.097.147.177.303.239.467.065.173.12.35.164.529.046.186.084.38.115.581.032.202.062.407.091.616.021.158.037.33.05.516a20.126 20.126 0 01.044 1.133l.003.523v.319h-.79z"/></mask><path d="M165.994 170.321c0-.259-.001-.523-.005-.792a23.112 23.112 0 00-.023-.797 17.182 17.182 0 00-.055-.774 8.153 8.153 0 00-.1-.726 5.583 5.583 0 00-.159-.649 2.888 2.888 0 00-.232-.55l.658-.396c.097.147.177.303.239.467.065.173.12.35.164.529.046.186.084.38.115.581.032.202.062.407.091.616.021.158.037.33.05.516a20.126 20.126 0 01.044 1.133l.003.523v.319h-.79z" fill="#C6C6C6"/><path d="M165.994 170.321h-1v1h1v-1zm-.005-.792l-1 .011v.001l1-.012zm-.023-.797l.999-.047v-.001l-.999.048zm-.055-.774l.996-.094v-.001l-.996.095zm-.1-.726l-.983.18v.002l.983-.182zm-.159-.649l-.956.293.001.002.955-.295zm-.232-.55l-.515-.858-.824.495.462.843.877-.48zm.658-.396l.835-.551-.528-.799-.821.493.514.857zm.239.467l.936-.352v-.001l-.936.353zm.164.529l-.972.238.001.003.971-.241zm.115.581l-.988.152v.003l.988-.155zm.091.616l.992-.13-.001-.007-.991.137zm.05.516l-.998.067v.001l.998-.068zm.029.565l-.999.037v.002l.999-.039zm.015.568l.999-.01v-.001l-.999.011zm.003.523h1v-.001l-1 .001zm0 .319v1h1v-1h-1zm.21 0c0-.263-.001-.532-.005-.804l-2 .024c.004.265.005.525.005.78h2zm-.005-.804c-.003-.28-.011-.557-.024-.832l-1.998.094c.012.251.019.504.022.761l2-.023zm-.024-.833a17.972 17.972 0 00-.058-.82l-1.991.187c.022.238.039.481.051.729l1.998-.096zm-.058-.821a9.654 9.654 0 00-.112-.813l-1.967.364c.037.199.066.412.088.638l1.991-.189zm-.112-.81a6.666 6.666 0 00-.187-.765l-1.911.59c.054.176.098.354.131.534l1.967-.359zm-.187-.763a3.887 3.887 0 00-.311-.738l-1.754.961c.064.116.115.238.153.363l1.912-.586zm-.673.6l.658-.395-1.029-1.715-.659.395 1.03 1.715zm-.691-.701c.056.084.102.174.138.268l1.871-.706a3.363 3.363 0 00-.34-.665l-1.669 1.103zm.137.267c.051.136.094.274.128.415l1.943-.475a5.513 5.513 0 00-.199-.644l-1.872.704zm.129.418c.038.154.071.318.098.492l1.977-.303a7.707 7.707 0 00-.134-.67l-1.941.481zm.098.495c.031.195.06.395.089.599l1.981-.275a32.95 32.95 0 00-.094-.633l-1.976.309zm.087.591c.018.134.033.285.044.453l1.995-.134a9.439 9.439 0 00-.055-.579l-1.984.26zm.044.454c.012.175.021.353.028.534l1.999-.074c-.008-.201-.018-.4-.032-.596l-1.995.136zm.028.536c.007.183.012.363.014.54l1.999-.022a24.075 24.075 0 00-.014-.595l-1.999.077zm.014.539l.003.514 2-.002-.004-.532-1.999.02zm.003.513v.319h2v-.319h-2zm1-.681h-.79v2h.79v-2z" fill="#C6C6C6" mask="url(#d)"/><mask id="e" fill="#fff"><path d="M167.648 168.499c0-.146.03-.291.089-.425a1.128 1.128 0 011.038-.676 1.13 1.13 0 011.041.676 1.065 1.065 0 010 .855 1.104 1.104 0 01-.604.582 1.155 1.155 0 01-.877 0 1.114 1.114 0 01-.598-.582 1.062 1.062 0 01-.089-.43zm.619 0a.462.462 0 00.04.194.51.51 0 00.666.263.542.542 0 00.274-.263.495.495 0 000-.387.514.514 0 00-.94 0 .46.46 0 00-.04.193z"/></mask><path d="M167.648 168.499c0-.146.03-.291.089-.425a1.128 1.128 0 011.038-.676 1.13 1.13 0 011.041.676 1.065 1.065 0 010 .855 1.104 1.104 0 01-.604.582 1.155 1.155 0 01-.877 0 1.114 1.114 0 01-.598-.582 1.062 1.062 0 01-.089-.43zm.619 0a.462.462 0 00.04.194.51.51 0 00.666.263.542.542 0 00.274-.263.495.495 0 000-.387.514.514 0 00-.94 0 .46.46 0 00-.04.193z" fill="#C6C6C6"/><path d="M167.648 168.499l1.001.007-.001-.012-1 .005zm.089-.425l.915.404.002-.004-.917-.4zm.241-.351l-.704-.71-.002.001.706.709zm.797-.325l-.004 1h.009l-.005-1zm.437.087l-.387.922.004.002.383-.924zm.604.589l.917-.398-.001-.003-.916.401zm0 .855l.916.4.001-.002-.917-.398zm-.243.348l.689.724.003-.002-.692-.722zm-.361.234l.381.924.002-.001-.383-.923zm-.877 0l.381-.925h-.001l-.38.925zm-.598-.582l.918-.398-.002-.005-.916.403zm.53-.43l1 .01v-.019l-1 .009zm.04.194l.914-.406-.001-.003-.913.409zm.27.263l-.39.921.007.003.383-.924zm.396 0l.384.924.009-.004-.393-.92zm.163-.107l.688.726.003-.003-.691-.723zm.111-.156l.912.409.004-.009-.916-.4zm0-.387l.916-.4-.005-.011-.911.411zm-.274-.266l.393-.92-.009-.003-.384.923zm-.396 0l-.383-.923-.009.003.392.92zm-.161.108l-.705-.708-.002.001.707.707zm-.109.158l-.912-.41-.001.001.913.409zm.341.188c0-.005.001-.01.004-.016l-1.829-.808a2.046 2.046 0 00-.175.834l2-.01zm.006-.02a.13.13 0 01.03-.043l-1.412-1.417c-.19.189-.343.413-.451.659l1.833.801zm.028-.042a.132.132 0 01.037-.024l-.753-1.852a2.077 2.077 0 00-.692.457l1.408 1.419zm.037-.024a.15.15 0 01.052-.01l.008-2a2.14 2.14 0 00-.813.158l.753 1.852zm.061-.01c.016 0 .032.004.045.009l.774-1.844a2.126 2.126 0 00-.829-.165l.01 2zm.049.011c.038.016.06.042.071.065l1.832-.801a2.124 2.124 0 00-1.137-1.111l-.766 1.847zm.07.063a.08.08 0 01.006.029h2c0-.284-.059-.565-.172-.825l-1.834.796zm.006.029a.08.08 0 01-.006.029l1.834.797a2.08 2.08 0 00.172-.826h-2zm-.006.027a.07.07 0 01-.018.027l1.384 1.444c.198-.19.357-.418.467-.67l-1.833-.801zm-.015.024a.179.179 0 01-.055.035l.766 1.847a2.17 2.17 0 00.667-.433l-1.378-1.449zm-.053.034a.156.156 0 01-.057.011v2c.28 0 .559-.055.819-.162l-.762-1.849zm-.057.011a.158.158 0 01-.058-.011l-.762 1.849c.26.107.539.162.82.162v-2zm-.059-.011a.11.11 0 01-.06-.055l-1.835.795c.219.507.629.902 1.135 1.11l.76-1.85zm-.062-.06a.053.053 0 01-.005-.02l-2-.013c-.001.289.058.574.174.838l1.831-.805zm-1.386-.036c-.002.211.041.42.127.611l1.826-.817c.031.07.047.147.047.225l-2-.019zm.126.609c.158.354.444.63.794.778l.78-1.842a.488.488 0 01.254.252l-1.828.812zm.801.781c.184.076.382.115.581.115v-2c.063 0 .126.013.185.037l-.766 1.848zm.581.115c.199 0 .397-.039.582-.115l-.767-1.848a.492.492 0 01.185-.037v2zm.591-.119c.168-.072.324-.174.458-.301l-1.376-1.451a.446.446 0 01.133-.088l.785 1.84zm.461-.304c.139-.133.252-.293.332-.47l-1.825-.819a.5.5 0 01.11-.156l1.383 1.445zm.336-.479c.082-.187.124-.389.124-.594h-2c0-.071.015-.142.043-.207l1.833.801zm.124-.594c0-.204-.042-.406-.124-.593l-1.833.801a.527.527 0 01-.043-.208h2zm-.129-.604a1.525 1.525 0 00-.792-.775l-.785 1.84a.474.474 0 01-.246-.243l1.823-.822zm-.801-.778a1.515 1.515 0 00-.582-.116v2a.492.492 0 01-.185-.037l.767-1.847zm-.582-.116c-.199 0-.397.039-.581.116l.766 1.847a.492.492 0 01-.185.037v-2zm-.59.119a1.503 1.503 0 00-.474.32l1.411 1.417a.486.486 0 01-.153.103l-.784-1.84zm-.476.321c-.13.131-.237.284-.314.455l1.824.821a.472.472 0 01-.096.139l-1.414-1.415zm-.315.456a1.463 1.463 0 00-.127.612l2-.019a.557.557 0 01-.047.225l-1.826-.818z" fill="#C6C6C6" mask="url(#e)"/><mask id="f" fill="#fff"><path d="M170.738 168.499a1.023 1.023 0 01.089-.425 1.125 1.125 0 011.037-.676 1.13 1.13 0 011.041.676 1.065 1.065 0 010 .855c-.057.13-.139.248-.243.348a1.151 1.151 0 01-1.238.234 1.108 1.108 0 01-.597-.582 1.046 1.046 0 01-.089-.43zm.618 0a.462.462 0 00.04.194.514.514 0 00.94 0 .478.478 0 000-.387.519.519 0 00-.83-.158.555.555 0 00-.11.158.46.46 0 00-.04.193z"/></mask><path d="M170.738 168.499a1.023 1.023 0 01.089-.425 1.125 1.125 0 011.037-.676 1.13 1.13 0 011.041.676 1.065 1.065 0 010 .855c-.057.13-.139.248-.243.348a1.151 1.151 0 01-1.238.234 1.108 1.108 0 01-.597-.582 1.046 1.046 0 01-.089-.43zm.618 0a.462.462 0 00.04.194.514.514 0 00.94 0 .478.478 0 000-.387.519.519 0 00-.83-.158.555.555 0 00-.11.158.46.46 0 00-.04.193z" fill="#C6C6C6"/><path d="M170.827 168.074l.914.404.002-.004-.916-.4zm.24-.351l-.704-.71-.001.001.705.709zm.797-.325l-.003 1h.009l-.006-1zm.437.087l-.387.922.004.002.383-.924zm.604.589l.918-.398-.001-.003-.917.401zm0 .855l.917.4.001-.002-.918-.398zm-.243.348l.689.724.003-.002-.692-.722zm-.361.234l.381.924.002-.001-.383-.923zm-.877 0l.382-.925h-.002l-.38.925zm-.597-.582l.917-.398-.002-.005-.915.403zm.529-.43l1 .01v-.019l-1 .009zm.04.194l.914-.406-.001-.003-.913.409zm.27.263l-.39.921.007.003.383-.924zm.397 0l.383.924.009-.004-.392-.92zm.162-.107l.688.726.004-.003-.692-.723zm.111-.156l.912.409.004-.009-.916-.4zm.04-.194h1-1zm-.04-.193l.916-.4-.004-.011-.912.411zm-.273-.266l.392-.92-.009-.003-.383.923zm-.397 0l-.383-.923-.009.003.392.92zm-.16.108l-.706-.708-.001.001.707.707zm-.11.158l-.911-.41-.001.001.912.409zm.342.188a.05.05 0 01.003-.016l-1.829-.808a2.028 2.028 0 00-.174.834l2-.01zm.005-.02a.13.13 0 01.03-.043l-1.411-1.417a2.15 2.15 0 00-.452.659l1.833.801zm.028-.042a.138.138 0 01.038-.024l-.753-1.852a2.096 2.096 0 00-.693.457l1.408 1.419zm.038-.024a.142.142 0 01.052-.01l.007-2a2.135 2.135 0 00-.812.158l.753 1.852zm.061-.01c.016 0 .031.004.044.009l.775-1.844a2.13 2.13 0 00-.83-.165l.011 2zm.048.011a.128.128 0 01.071.065l1.833-.801a2.13 2.13 0 00-1.137-1.111l-.767 1.847zm.07.063a.08.08 0 01.006.029h2a2.07 2.07 0 00-.171-.825l-1.835.796zm.006.029a.08.08 0 01-.006.029l1.835.797c.113-.261.171-.542.171-.826h-2zm-.005.027a.09.09 0 01-.019.027l1.384 1.444c.198-.19.357-.418.468-.67l-1.833-.801zm-.016.024a.179.179 0 01-.055.035l.766 1.847c.247-.102.473-.248.667-.433l-1.378-1.449zm-.053.034a.152.152 0 01-.057.011v2c.281 0 .559-.055.819-.162l-.762-1.849zm-.057.011a.152.152 0 01-.057-.011l-.763 1.849c.26.107.539.162.82.162v-2zm-.059-.011a.11.11 0 01-.06-.055l-1.835.795c.22.507.63.902 1.135 1.11l.76-1.85zm-.062-.06a.05.05 0 01-.004-.02l-2-.013c-.002.289.057.574.173.838l1.831-.805zm-1.386-.036c-.002.211.042.42.128.611l1.825-.817c.031.07.048.146.047.225l-2-.019zm.126.609c.158.354.444.63.794.778l.78-1.842a.484.484 0 01.254.252l-1.828.812zm.801.781c.185.076.382.115.581.115v-2c.063 0 .126.013.186.037l-.767 1.848zm.581.115c.2 0 .397-.039.582-.115l-.767-1.848a.496.496 0 01.185-.037v2zm.591-.119c.169-.072.324-.174.458-.301l-1.376-1.451a.46.46 0 01.133-.088l.785 1.84zm.462-.304c.139-.133.252-.293.331-.47l-1.824-.819a.484.484 0 01.11-.156l1.383 1.445zm.335-.479c.082-.187.124-.389.124-.594h-2a.51.51 0 01.044-.207l1.832.801zm.124-.594c0-.204-.042-.406-.124-.593l-1.832.801a.51.51 0 01-.044-.208h2zm-.128-.604a1.524 1.524 0 00-.793-.774l-.785 1.839a.477.477 0 01-.246-.243l1.824-.822zm-.802-.778a1.511 1.511 0 00-.582-.116v2a.496.496 0 01-.185-.037l.767-1.847zm-.582-.116a1.51 1.51 0 00-.581.116l.767 1.847a.501.501 0 01-.186.037v-2zm-.59.119a1.503 1.503 0 00-.474.32l1.411 1.417a.486.486 0 01-.153.103l-.784-1.84zm-.475.321a1.511 1.511 0 00-.314.455l1.823.821a.47.47 0 01-.095.139l-1.414-1.415zm-.315.456c-.086.192-.13.401-.128.612l2-.019a.54.54 0 01-.047.225l-1.825-.818z" fill="#C6C6C6" mask="url(#f)"/><path d="M163.997 165.522l-2.634 6.06" stroke="#C6C6C6" stroke-width=".2" stroke-linecap="round" stroke-linejoin="round"/><path d="M188.235 38.198c1.604 0 2.904-1.267 2.904-2.83 0-1.563-1.3-2.83-2.904-2.83-1.603 0-2.903 1.267-2.903 2.83 0 1.563 1.3 2.83 2.903 2.83zM187.547 84.84h-8.898c-1.004 0-1.817.792-1.817 1.77v.56c0 .98.813 1.772 1.817 1.772h8.898c1.004 0 1.817-.793 1.817-1.771v-.56c0-.979-.813-1.772-1.817-1.772z" fill="#fff"/><path d="M238.916 92.464c-1.065-1.698-5.347-5.353-5.347-5.353s-2.226-1.674-3.532-1.18M230.044 80.957s.767-.755 2.364.024c1.597.778 2.468.966 7.041 5.517M231.27 92.967s.614-.817 2.969.723a21.812 21.812 0 013.677 2.956M231.398 76.303s1.55-1.226 5.873 2.075c4.322 3.302 5.58 5.094 5.58 5.094M138.362 104.349s1.115-.048.872-5.282M141.992 105.056s2.419.754 1.355-6.744M146.814 107.115s2.128.676.71-9.935" stroke="#01066D" stroke-width=".1" stroke-linecap="round" stroke-linejoin="round"/><path d="M354.314 17.392h-86.206v131.162h86.206V17.392z" fill="#C5E1F9"/><path d="M354.177 48.574s-14.13-11.319-26.711-2.453c-12.581 8.867-22.84 17.922-33.292 7.546-10.452-10.375-20.517-18.675-26.131-13.77v108.657h86.271l-.137-99.98z" fill="#EAF4FE"/><path d="M257.655 7.072v163.742h107.618V7.072H257.655zm96.658 141.482h-86.206V17.392h86.206v131.162z" fill="#fff" stroke="#E0E0E0" stroke-width=".5" stroke-linecap="round" stroke-linejoin="round"/><path d="M283.657 30.024l-6 1.697M281.528 33.797l-1.742-5.848" stroke="#D2A106" stroke-width=".75" stroke-linecap="round" stroke-linejoin="round"/><path d="M272.367 151.821l1.483 2.929 3.316.469-2.399 2.28.566 3.219-2.966-1.519-2.966 1.519.566-3.219-2.4-2.28 3.316-.469 1.484-2.929z" fill="#FFDA00" stroke="#C6C6C6" stroke-width=".1" stroke-miterlimit="10"/><path d="M349.818 161.765c2.647 0 4.793-2.092 4.793-4.672 0-2.58-2.146-4.672-4.793-4.672-2.647 0-4.794 2.092-4.794 4.672 0 2.58 2.147 4.672 4.794 4.672z" fill="#EDC603"/><path d="M350.447 161.765c2.647 0 4.793-2.092 4.793-4.672 0-2.58-2.146-4.672-4.793-4.672-2.648 0-4.794 2.092-4.794 4.672 0 2.58 2.146 4.672 4.794 4.672z" fill="#FFDA00"/><g style="mix-blend-mode:multiply"><path d="M350.829 158.681l-.003-.614a20.773 20.773 0 00-.018-.617c-.01-.203-.024-.403-.043-.599a6.199 6.199 0 00-.077-.562 4.148 4.148 0 00-.124-.503 2.24 2.24 0 00-.18-.426l.511-.306c.075.113.137.235.185.361.05.134.093.271.127.41.035.144.065.294.089.45.024.156.048.315.07.477.016.122.029.255.039.399a15.252 15.252 0 01.034.877l.002.405v.248h-.612z" fill="#997D05" opacity=".34"/></g><path d="M350.262 158.681l-.003-.614a20.773 20.773 0 00-.018-.617c-.01-.203-.024-.403-.043-.599a6.199 6.199 0 00-.077-.562 4.34 4.34 0 00-.123-.503 2.31 2.31 0 00-.181-.426l.511-.306c.075.113.137.235.185.361.05.134.093.271.127.41.035.144.065.294.089.45.024.156.048.315.07.477.016.122.029.255.039.399a15.252 15.252 0 01.034.877l.002.405v.248h-.612z" fill="#FF0"/><path d="M354.373 157.093c0 .757-.23 1.497-.662 2.126a3.912 3.912 0 01-1.762 1.41 4.025 4.025 0 01-2.269.217 3.952 3.952 0 01-2.01-1.047 3.787 3.787 0 01-1.075-1.96 3.735 3.735 0 01.223-2.211 3.853 3.853 0 011.447-1.717 4.02 4.02 0 013.684-.354c.476.193.909.474 1.274.83.364.355.654.777.851 1.241.197.465.299.962.299 1.465z" stroke="#FF0" stroke-width=".75" stroke-linecap="round" stroke-linejoin="round" stroke-dasharray="4.34 4.34"/><path d="M338.687 161.765c2.648 0 4.794-2.092 4.794-4.672 0-2.58-2.146-4.672-4.794-4.672-2.647 0-4.793 2.092-4.793 4.672 0 2.58 2.146 4.672 4.793 4.672z" fill="#EDC603"/><path d="M339.316 161.765c2.648 0 4.794-2.092 4.794-4.672 0-2.58-2.146-4.672-4.794-4.672-2.647 0-4.793 2.092-4.793 4.672 0 2.58 2.146 4.672 4.793 4.672z" fill="#FFDA00"/><g style="mix-blend-mode:multiply"><path d="M339.7 158.681c0-.201-.001-.406-.004-.614a15.655 15.655 0 00-.06-1.216 6.567 6.567 0 00-.078-.562 4.34 4.34 0 00-.123-.503 2.24 2.24 0 00-.18-.426l.51-.306c.075.113.137.235.185.361.051.134.093.271.127.41.036.144.065.294.09.45.024.156.047.315.07.477.016.122.029.255.039.399a16.447 16.447 0 01.033.877l.003.405v.248h-.612z" fill="#997D05" opacity=".34"/></g><path d="M339.133 158.681c0-.201-.002-.406-.004-.614a20.773 20.773 0 00-.018-.617c-.01-.203-.024-.403-.043-.599a6.199 6.199 0 00-.077-.562 4.34 4.34 0 00-.123-.503 2.376 2.376 0 00-.18-.426l.51-.306c.075.113.137.235.185.361.05.134.093.271.127.41.035.144.065.294.089.45.024.156.048.315.07.477.016.122.029.255.039.399a15.252 15.252 0 01.034.877l.002.405v.248h-.611z" fill="#FF0"/><path d="M343.243 157.093c0 .757-.23 1.497-.662 2.126a3.907 3.907 0 01-1.762 1.41 4.025 4.025 0 01-2.269.217 3.956 3.956 0 01-2.01-1.047 3.801 3.801 0 01-1.075-1.96 3.735 3.735 0 01.224-2.211c.297-.699.8-1.297 1.446-1.717a4.02 4.02 0 013.684-.354c.476.193.909.474 1.274.83.365.355.654.777.851 1.241.198.465.299.962.299 1.465z" stroke="#FF0" stroke-width=".75" stroke-linecap="round" stroke-linejoin="round" stroke-dasharray="4.34 4.34"/><path d="M327.558 161.765c2.647 0 4.793-2.092 4.793-4.672 0-2.58-2.146-4.672-4.793-4.672-2.648 0-4.794 2.092-4.794 4.672 0 2.58 2.146 4.672 4.794 4.672z" fill="#EDC603"/><path d="M328.187 161.765c2.647 0 4.793-2.092 4.793-4.672 0-2.58-2.146-4.672-4.793-4.672-2.647 0-4.793 2.092-4.793 4.672 0 2.58 2.146 4.672 4.793 4.672z" fill="#FFDA00"/><g style="mix-blend-mode:multiply"><path d="M328.57 158.681c0-.201-.001-.406-.004-.614a15.655 15.655 0 00-.06-1.216 6.575 6.575 0 00-.077-.562 4.343 4.343 0 00-.124-.503 2.24 2.24 0 00-.18-.426l.51-.306c.076.113.138.235.185.361.051.134.093.271.127.41.036.144.066.294.09.45.024.156.047.315.07.477.016.122.029.255.039.399a20.003 20.003 0 01.034.877l.002.405v.248h-.612z" fill="#997D05" opacity=".34"/></g><path d="M328.003 158.681c0-.201-.002-.406-.004-.614a15.655 15.655 0 00-.06-1.216 6.567 6.567 0 00-.078-.562 4.34 4.34 0 00-.123-.503 2.306 2.306 0 00-.18-.426l.51-.306c.075.113.137.235.185.361.051.134.093.271.127.41.035.144.065.294.089.45.025.156.048.315.071.477.016.122.029.255.038.399.01.144.018.29.023.438.006.148.01.295.011.439l.003.405v.248h-.612z" fill="#FF0"/><path d="M332.114 157.093a3.76 3.76 0 01-.662 2.126 3.908 3.908 0 01-1.762 1.409 4.017 4.017 0 01-2.269.218 3.959 3.959 0 01-2.011-1.047 3.793 3.793 0 01-1.074-1.96 3.735 3.735 0 01.223-2.211 3.85 3.85 0 011.446-1.717 3.997 3.997 0 012.182-.645c1.041 0 2.04.403 2.776 1.121a3.775 3.775 0 011.151 2.706v0z" stroke="#FF0" stroke-width=".75" stroke-linecap="round" stroke-linejoin="round" stroke-dasharray="4.34 4.34"/><path d="M316.428 161.765c2.647 0 4.793-2.092 4.793-4.672 0-2.58-2.146-4.672-4.793-4.672-2.647 0-4.793 2.092-4.793 4.672 0 2.58 2.146 4.672 4.793 4.672z" fill="#EDC603"/><path d="M317.057 161.765c2.647 0 4.793-2.092 4.793-4.672 0-2.58-2.146-4.672-4.793-4.672-2.647 0-4.793 2.092-4.793 4.672 0 2.58 2.146 4.672 4.793 4.672z" fill="#FFDA00"/><g style="mix-blend-mode:multiply"><path d="M317.44 158.681c0-.201-.001-.406-.004-.614a15.655 15.655 0 00-.06-1.216 6.575 6.575 0 00-.077-.562 4.343 4.343 0 00-.124-.503 2.24 2.24 0 00-.18-.426l.51-.306c.076.113.138.235.185.361.051.134.093.271.127.41.036.144.066.294.09.45.024.156.047.315.07.477.016.122.029.255.039.399a20.003 20.003 0 01.034.877l.002.405v.248h-.612z" fill="#997D05" opacity=".34"/></g><path d="M316.873 158.681l-.003-.614a20.773 20.773 0 00-.018-.617c-.01-.203-.024-.403-.043-.599a6.199 6.199 0 00-.077-.562 4.148 4.148 0 00-.124-.503 2.24 2.24 0 00-.18-.426l.511-.306c.075.113.137.235.185.361.05.134.093.271.127.41.035.144.065.294.089.45.024.156.048.315.07.477.016.122.029.255.039.399a15.252 15.252 0 01.034.877l.002.405v.248h-.612z" fill="#FF0"/><path d="M317.057 160.92c2.168 0 3.926-1.714 3.926-3.827 0-2.114-1.758-3.827-3.926-3.827-2.169 0-3.927 1.713-3.927 3.827 0 2.113 1.758 3.827 3.927 3.827z" stroke="#FF0" stroke-width=".75" stroke-linecap="round" stroke-linejoin="round" stroke-dasharray="4.34 4.34"/><path d="M305.355 161.765c2.647 0 4.793-2.092 4.793-4.672 0-2.58-2.146-4.672-4.793-4.672-2.647 0-4.793 2.092-4.793 4.672 0 2.58 2.146 4.672 4.793 4.672z" fill="#EDC603"/><path d="M305.984 161.765c2.647 0 4.793-2.092 4.793-4.672 0-2.58-2.146-4.672-4.793-4.672-2.648 0-4.794 2.092-4.794 4.672 0 2.58 2.146 4.672 4.794 4.672z" fill="#FFDA00"/><g style="mix-blend-mode:multiply"><path d="M306.367 158.681l-.003-.614a20.773 20.773 0 00-.018-.617c-.01-.203-.024-.403-.043-.599a6.199 6.199 0 00-.077-.562 4.34 4.34 0 00-.123-.503 2.31 2.31 0 00-.181-.426l.511-.306c.075.113.137.235.185.361.05.134.093.271.127.41.035.144.065.294.089.45.024.156.048.315.07.477.016.122.029.255.039.399a15.252 15.252 0 01.034.877l.002.405v.248h-.612z" fill="#997D05" opacity=".34"/></g><path d="M305.8 158.681c0-.201-.001-.406-.004-.614a15.655 15.655 0 00-.06-1.216 6.567 6.567 0 00-.078-.562 4.145 4.145 0 00-.123-.503 2.24 2.24 0 00-.18-.426l.51-.306c.076.113.138.235.185.361.051.134.093.271.127.41.036.144.066.294.09.45.024.156.047.315.07.477.016.122.029.255.039.399a20.003 20.003 0 01.034.877l.002.405v.248h-.612z" fill="#FF0"/><path d="M309.911 157.093c0 .757-.23 1.497-.662 2.126a3.907 3.907 0 01-1.762 1.41 4.025 4.025 0 01-2.269.217 3.956 3.956 0 01-2.01-1.047 3.801 3.801 0 01-1.075-1.96 3.735 3.735 0 01.224-2.211c.297-.699.8-1.297 1.446-1.717a4.02 4.02 0 013.684-.354c.477.193.909.474 1.274.83.365.355.654.777.851 1.241.198.465.299.962.299 1.465z" stroke="#FF0" stroke-width=".75" stroke-linecap="round" stroke-linejoin="round" stroke-dasharray="4.34 4.34"/><path d="M320.11 50.932s5.904 3.584 8.033 4.15c2.129.566 22.163 6.886 26.227 12.922L354.467 88s-9.775-3.395-11.033-4.15l-3.194 36.408s2.13 2.17 2.13 2.924c0 .755-.678 3.867-.678 3.867h-55.454a6.022 6.022 0 00-.387-2.452 2.408 2.408 0 01-.082-1.608 2.47 2.47 0 01.953-1.316c.871-.66-3.194-38.012-3.194-38.012l-4.452.095s4.936-8.395 3-17.827l1.258-3.207 16.066-6.697 5.323-4.527 8.323 16.695 7.064-17.261z" fill="#0062FF"/><path d="M322.85 81.963s-1.621 22.365-18.707 23.581c0 0 10.85-4.133 18.707-23.58z" fill="#C6C6C6"/><path d="M303.207 68.381s1.778-2.794 3.326-4.115c1.549-1.32 2.166-1.835 3.521-2.134l1.605 3.23s-3.855-2.546-8.452 3.02z" fill="#CAC5C4"/><path d="M304.723 51.246l-5.323 4.527s3.194 11.79 3.872 12.545c0 0 3.629-5.706 7.016-6.272l-5.565-10.8zM315.32 62.321s6.436 2.948 7.597 5.589l2.323-14.078-5.129-2.9-4.791 11.39z" fill="#F4F4F4"/><path d="M320.591 38.471l-.48 12.46-7.065 17.261-8.323-16.695-1.064-9.054 16.932-3.972z" fill="#FCC8D7"/><path d="M305.11 46.027s2.935 5.707 7 5.754c4.065.047 5.936-3.899 7.097-8.3 0 0-6.548 7.31-14.097 2.546z" fill="#000"/><path d="M321.562 33.483c-.098 0-.196.01-.293.027.092-1.277.1-2.218.1-2.574a38.11 38.11 0 00-20.904.848s.014.651.11 1.7l-.038-.002c-1.176 0-2.129 1.183-2.129 2.642 0 1.458.953 2.64 2.129 2.64.296 0 .588-.076.846-.218 1.158 4.942 3.767 10.782 9.63 10.782 5.985 0 8.512-5.757 9.578-10.856.287.188.625.29.971.292 1.176 0 2.129-1.182 2.129-2.64 0-1.46-.953-2.642-2.129-2.642z" fill="#FCC8D7"/><path d="M317.498 30.212s-.242 3.93 3.677 4.874l.21-4.276-3.887-.598z" fill="#000"/><path d="M322.772 31.313s-9.194-3.114-22.307.471c0 0-2.855-10.092 8.565-13.77 0 0 .193-.613 1.911-.613 1.567 0 1.766.613 1.766.613s10.452.141 10.065 13.299z" fill="#0062FF"/><path d="M308.279 26.29c.097-6.744.75-8.277.75-8.277s.363-.66 1.912-.613c1.548.048 1.766.613 1.766.613s.46 5.047-.048 8.348" fill="#0062FF"/><path d="M308.279 26.29c.097-6.744.75-8.277.75-8.277s.363-.66 1.912-.613c1.548.048 1.766.613 1.766.613s.46 5.047-.048 8.348" stroke="#4589FF" stroke-linecap="round" stroke-linejoin="round"/><path d="M289.044 49.611l-6.968 16.318s2.129 7.546-3 17.827c0 0-10.549.943-16.84-2.076 0 0-3.871-2.452-3-6.13.871-3.679 23.517-30.843 23.517-30.843s4.646 4.338 6.291 4.904z" fill="#FCC8D7"/><path d="M312.368 27.949s-3.871-2.013-4.516-2.013-9.097.755-9.742 1.132c-.646.378-16.453 16.664-16.453 16.664s7.807 8.3 12.775 7.608l2.839-11.13s3.742-2.138 4.581-5.785c0 0 3.161.378 4.194-2.137 0 0 3.548-4.402 6.322-4.34z" fill="#E0E0E0"/><path d="M312.368 27.949s-.101.856-1.908.92c0 0 .637 1.603-1.04 1.603-.61.01-1.219-.014-1.826-.07 0 0 .645 2.137-1.549 1.886l-1.871-1.007s.581 2.327-.967 2.453c-1.549.125-2.517-1.32-2.517-1.32a4.103 4.103 0 00-1.944-.855 4.151 4.151 0 00-2.12.225l-.904.818-1.613-1.635 4.001-3.899 9.742-1.132 4.516 2.013z" fill="#E0E0E0"/><path d="M308.404 27.76a7.769 7.769 0 00-1.778 1.73M305.936 29.481s-1.154-.22-1.863 1.651M302.819 31.03a1.736 1.736 0 00-.859.372c-.245.2-.428.463-.528.76" stroke="#C6C6C6" stroke-width=".2" stroke-linecap="round" stroke-linejoin="round"/><path d="M296.561 36.312a2.425 2.425 0 01-.855-.826 2.354 2.354 0 01-.351-1.123 2.919 2.919 0 01.235-1.28c.175-.405.438-.767.773-1.061a1.66 1.66 0 01.686-.371c2.16-.57 4.383.51 4.383.51s2.13 1.203 2.71.708c.581-.495.218-1.108-.193-1.603 0 0 1.726 1.053 2.097 1.021 0 0-.847 2.468-4.194 2.138-.723 2.423-2.36 4.49-4.581 5.786a4.222 4.222 0 01.121-2.885c.653-1.32-.452-.778-.831-1.014z" fill="#C6C6C6"/><path d="M358.339 74.23s-1.549.565-.63 1.603c.92 1.037 6.098 3.584 5.904 4.527-.194.943-.193 1.603-3.048 1.132-2.855-.472-8.517-1.132-9.146.754-.629 1.887.484 2.594 1.21 2.877 0 0-1.839.52-1.694 1.887a1.503 1.503 0 00.461 1.107 1.58 1.58 0 001.136.449s-1.597.755-1.452 2.075c.145 1.32.92 1.462 1.791 1.604 0 0-2.033.188-1.839 1.839.193 1.65 3.581 2.075 4.984 2.17 0 0 1.597 2.027 3.871 2.169 2.274.141 4.839-.85 5.42-.472v1.934s4.5.707 6.581-6.131c2.08-6.839-3.775-14.431-4.597-15.328-.823-.896-6.097-5.282-8.952-4.197z" fill="#E0E0E0"/><path d="M352.629 85.123l4.016.095M352.532 88.566l4.113.047M352.87 92.244h3.387M363.855 75.786a8.043 8.043 0 00-2.323 2.28M368.065 79.511s-3.291 2.782-3.968 4.386c-.678 1.603-.436 13.85-.436 13.85M357.919 81.523l-1.371 15.296" stroke="#C6C6C6" stroke-width=".2" stroke-linecap="round" stroke-linejoin="round"/><path d="M372.372 91.396s.241 9.338-7.065 11.696v-3.207s5.468.849 7.065-8.49z" fill="#C6C6C6"/><path d="M340.966 127.049H286.77c-.828 0-1.5.655-1.5 1.462 0 .808.672 1.462 1.5 1.462h54.196c.829 0 1.5-.654 1.5-1.462 0-.807-.671-1.462-1.5-1.462zM286.77 129.973l-4.984 18.487h27.969l2.709-12.262h2.323l3.001 12.451h28.84l-5.662-18.676H286.77z" fill="#E0E0E0"/><path d="M292.214 129.997l-1.952 7.757a6.389 6.389 0 01-2.505 3.645 6.68 6.68 0 01-4.325 1.213v0M335.886 130.091l1.952 7.757a6.389 6.389 0 002.505 3.645 6.68 6.68 0 004.325 1.213v0" stroke="#C6C6C6" stroke-miterlimit="10"/><path d="M310.53 32.209l-1.364 3.233a1.749 1.749 0 00-.116.964c.052.325.196.63.414.882l.34.392s-1.21 1.084-.823 1.697 2.42.33 2.42.33" stroke="#000" stroke-width=".2" stroke-linecap="round" stroke-linejoin="round"/><path d="M318.314 39.774a1.276 1.276 0 00-.451-.648 1.332 1.332 0 00-.755-.269 1.936 1.936 0 00-.821.242c-1.041.535-1.825 1.443-2.9 1.924a9.956 9.956 0 01-3.958.803 4.978 4.978 0 00-1.571.136c-1.644.553-1.537 2.553-.416 3.566 1.583 1.433 4.3 1.413 6.232.83a7.196 7.196 0 003.996-2.684 4.483 4.483 0 00.777-1.854 4.438 4.438 0 00-.116-2l-.017-.046z" fill="#000"/><path d="M312.948 129.345l-.128 6.885" stroke="#C5E1F9" stroke-miterlimit="10"/><path d="M318.381 42.018s-6.097.212-8.807 4.551c0 0 2.601.767 5.827-.904 2.862-1.481 2.98-3.647 2.98-3.647z" fill="#FF2227"/><path d="M315.465 39.62l.585 1.513c.036.09.037.189.003.28a.403.403 0 01-.185.213 23.834 23.834 0 01-5.608 2.247.424.424 0 01-.293-.04.403.403 0 01-.19-.22l-.651-1.783a10.945 10.945 0 003.21-.44 12.79 12.79 0 003.129-1.77z" fill="#fff"/><path d="M284.496 41.028s3.871 5.753 10.549 7.64" stroke="#C6C6C6" stroke-width=".2" stroke-linecap="round" stroke-linejoin="round"/><path d="M315.08 69.418a.478.478 0 00.484-.472.478.478 0 00-.484-.471.478.478 0 00-.485.472c0 .26.217.471.485.471zM315.08 71.493a.478.478 0 00.484-.471.478.478 0 00-.484-.472.478.478 0 00-.485.472c0 .26.217.471.485.471z" fill="#fff" stroke="#fff" stroke-miterlimit="10"/><path d="M317.809 126.075h-8.237c-.612 0-1.108.483-1.108 1.079v3.312c0 .596.496 1.079 1.108 1.079h8.237c.612 0 1.107-.483 1.107-1.079v-3.312c0-.596-.495-1.079-1.107-1.079z" fill="#B3B3B3"/><path d="M316.938 126.924h-6.494c-.612 0-1.108.483-1.108 1.079v1.614c0 .596.496 1.079 1.108 1.079h6.494c.612 0 1.108-.483 1.108-1.079v-1.614c0-.596-.496-1.079-1.108-1.079z" fill="#CCC"/><path d="M314.433 128.276h-1.484a.54.54 0 00-.548.534c0 .295.245.535.548.535h1.484c.303 0 .549-.24.549-.535a.542.542 0 00-.549-.534z" fill="#fff"/><path d="M282.27 65.803s-3.065 8.615-7.452 12.136" stroke="#C6C6C6" stroke-width=".2" stroke-linecap="round" stroke-linejoin="round"/><mask id="g" fill="#fff"><path d="M278.394 159.472c0-.254-.002-.513-.005-.777a20.058 20.058 0 00-.076-1.541 8.212 8.212 0 00-.098-.712 5.382 5.382 0 00-.157-.637 2.873 2.873 0 00-.227-.54l.646-.388c.095.144.173.298.234.458.064.17.117.344.16.52.045.182.083.372.114.57.03.197.06.399.089.603.02.156.036.324.048.506a19.369 19.369 0 01.043 1.112l.003.513v.313h-.774z"/></mask><path d="M278.394 159.472c0-.254-.002-.513-.005-.777a20.058 20.058 0 00-.076-1.541 8.212 8.212 0 00-.098-.712 5.382 5.382 0 00-.157-.637 2.873 2.873 0 00-.227-.54l.646-.388c.095.144.173.298.234.458.064.17.117.344.16.52.045.182.083.372.114.57.03.197.06.399.089.603.02.156.036.324.048.506a19.369 19.369 0 01.043 1.112l.003.513v.313h-.774z" fill="#C6C6C6"/><path d="M278.394 159.472h-1v1h1v-1zm-.005-.777l1-.012-1 .012zm-.023-.782l-.999.047v.001l.999-.048zm-.053-.759l-.996.094v.001l.996-.095zm-.098-.712l-.984.18.001.001.983-.181zm-.157-.637l-.956.292.001.005.955-.297zm-.227-.54l-.515-.857-.825.495.463.844.877-.482zm.646-.388l.834-.551-.528-.799-.821.493.515.857zm.234.458l.936-.352-.001-.001-.935.353zm.16.52l-.971.236.001.004.97-.24zm.114.57l-.989.152v.001l.989-.153zm.089.603l.991-.13-.001-.008-.99.138zm.048.506l-.997.067v.002l.997-.069zm.03.555l.999-.036v-.004l-.999.04zm.013.557l1-.011v-.002l-1 .013zm.003.513h1v-.001l-1 .001zm0 .313v1h1v-1h-1zm.226 0c0-.258-.002-.521-.005-.789l-2 .023c.003.261.005.516.005.766h2zm-.005-.789a22.012 22.012 0 00-.024-.818l-1.998.096c.012.245.019.494.022.745l2-.023zm-.024-.817a17.408 17.408 0 00-.057-.807l-1.991.19c.022.232.039.469.05.711l1.998-.094zm-.057-.806a8.945 8.945 0 00-.11-.799l-1.966.362c.035.195.064.403.085.625l1.991-.188zm-.109-.798a6.723 6.723 0 00-.185-.753l-1.911.593c.053.171.096.344.128.52l1.968-.36zm-.184-.749a3.86 3.86 0 00-.308-.729l-1.753.963c.062.112.111.229.148.35l1.913-.584zm-.67.61l.646-.388-1.029-1.715-.646.388 1.029 1.715zm-.703-.694c.055.082.099.169.134.26l1.87-.707a3.298 3.298 0 00-.335-.656l-1.669 1.103zm.133.259c.05.132.091.266.125.403l1.943-.473a5.677 5.677 0 00-.196-.635l-1.872.705zm.126.407c.037.151.069.312.095.482l1.977-.305a7.34 7.34 0 00-.131-.657l-1.941.48zm.095.483c.03.192.059.389.087.589l1.981-.277c-.029-.209-.06-.416-.091-.618l-1.977.306zm.086.581c.017.131.032.277.043.442l1.995-.133a8.49 8.49 0 00-.055-.57l-1.983.261zm.043.444c.011.17.02.345.028.526l1.998-.08c-.008-.195-.018-.39-.031-.583l-1.995.137zm.027.522c.007.181.011.358.013.533l2-.025a23.001 23.001 0 00-.014-.58l-1.999.072zm.013.531l.003.504 2-.002-.003-.523-2 .021zm.003.503v.313h2v-.313h-2zm1-.687h-.774v2h.774v-2z" fill="#C6C6C6" mask="url(#g)"/><path d="M281.515 158.591l.035.086-.035-.086c.112-.048.215-.116.304-.2h0l.003-.003.013-.013.068.072m-.388.144l-.826.086a1.138 1.138 0 001.214-.23m-.388.144l-.156-.376a.674.674 0 00.184-.116h.001l.014-.013m-.043.505l-.003.001-.005.002h0a1 1 0 01-.386.077h-.001a.998.998 0 01-.385-.077l-.003-.001h0l-.007-.003s0 0 0 0l.833-.504m.345.361l-.068-.072m.068.072a1.053 1.053 0 00.239-1.18m-2.039 0a1.02 1.02 0 00-.087.418l.087-.418zm0 0c.056-.128.136-.245.236-.345l-.236.345zm1.732 1.108l-1.146-1.685a1.12 1.12 0 011.453.577m-.307 1.108a.987.987 0 00.204-.295h0l.003-.005.004-.011s0 0 0 0a.964.964 0 00.077-.378v-.001a.973.973 0 00-.076-.377l.095-.041m-.307 1.108l.212-1.067.095-.041m-.584.819a.57.57 0 00.121-.169v-.001l.005-.01v-.001a.551.551 0 00.046-.219v-.001a.564.564 0 00-.046-.218l-.126.619zM283.73 158.1a.585.585 0 00.181.114h0a.03.03 0 00.01.004v.001c.073.028.15.043.229.043h.002a.644.644 0 00.23-.044l.001-.001.006-.003.156.377m-.815-.491l.984-.634v.001c.03.069.046.143.046.218v.001a.56.56 0 01-.046.22l.363.158m-1.347.036l.07-.072m-.07.072l-.011-.011.011.011.07-.072m.745.563s0 0 0 0l-.156-.376a.68.68 0 00.184-.115l.001-.001.015-.014a.546.546 0 00.12-.168l.001-.001.004-.01.363.158m-.532.527c.112-.048.215-.116.304-.2h0l.002-.002.014-.014.069.072-.068-.072a.997.997 0 00.204-.296h0l.003-.006.004-.009m-.532.527l.035.086.593-.571m-.096-.042s0 0 0 0m0 0l.096.042m-.096-.042c.05-.12.076-.248.077-.378v-.001a.973.973 0 00-.076-.377l.095-.041v.839m-.096-.042l.096.042m-1.373-.078a.485.485 0 01-.107-.154l.107-.534a.495.495 0 01.546-.106c.12.052.216.145.268.261a.48.48 0 010 .379.49.49 0 01-.268.258.494.494 0 01-.389 0 .518.518 0 01-.157-.104zm-.08.649a1.097 1.097 0 01-.586-.571 1.022 1.022 0 01-.087-.421 1.02 1.02 0 01.087-.418l.586 1.41zm0 0h0z" fill="#C6C6C6" stroke="#C6C6C6"/><mask id="h" fill="#fff"><path d="M290.743 159.472c0-.254-.002-.513-.005-.777a22.26 22.26 0 00-.022-.782c-.012-.257-.03-.511-.054-.759a7.842 7.842 0 00-.098-.712 5.378 5.378 0 00-.156-.637 2.876 2.876 0 00-.228-.54l.646-.388a2.3 2.3 0 01.234.458c.064.17.118.344.161.52.044.182.082.372.113.57.031.197.06.399.089.603.02.156.037.324.049.506a19.402 19.402 0 01.043 1.112l.003.513v.313h-.775z"/></mask><path d="M290.743 159.472c0-.254-.002-.513-.005-.777a22.26 22.26 0 00-.022-.782c-.012-.257-.03-.511-.054-.759a7.842 7.842 0 00-.098-.712 5.378 5.378 0 00-.156-.637 2.876 2.876 0 00-.228-.54l.646-.388a2.3 2.3 0 01.234.458c.064.17.118.344.161.52.044.182.082.372.113.57.031.197.06.399.089.603.02.156.037.324.049.506a19.402 19.402 0 01.043 1.112l.003.513v.313h-.775z" fill="#C6C6C6"/><path d="M290.743 159.472h-1v1h1v-1zm-.005-.777l1-.012-1 .012zm-.022-.782l.999-.047-.999.047zm-.054-.759l-.995.094v.001l.995-.095zm-.098-.712l-.983.18v.002l.983-.182zm-.156-.637l-.956.293.001.002.955-.295zm-.228-.54l-.515-.857-.826.496.465.843.876-.482zm.646-.388l.834-.551-.528-.799-.82.493.514.857zm.234.458l-.936.353h.001l.935-.353zm.161.52l-.972.237.001.001.971-.238zm.113.57l.989-.152-.001-.003-.988.155zm.089.603l.991-.13-.001-.009-.99.139zm.049.506l.998-.066v-.001l-.998.067zm.029.555l.999-.038v-.001l-.999.039zm.014.557l1-.009v-.003l-1 .012zm.003.826v1h1v-1h-1zm.225 0c0-.258-.002-.521-.005-.789l-1.999.023c.002.261.004.516.004.766h2zm-.005-.789a24.371 24.371 0 00-.023-.817l-1.998.094c.011.246.019.494.022.746l1.999-.023zm-.023-.817a17.408 17.408 0 00-.057-.807l-1.991.19c.022.232.038.469.05.711l1.998-.094zm-.057-.806a8.964 8.964 0 00-.111-.8l-1.966.364c.036.195.065.402.086.624l1.991-.188zm-.11-.798a6.702 6.702 0 00-.184-.752l-1.911.59c.053.172.095.346.128.522l1.967-.36zm-.184-.75a3.888 3.888 0 00-.308-.729l-1.752.964c.061.112.111.23.148.351l1.912-.586zm-.67.611l.647-.388-1.029-1.715-.647.388 1.029 1.715zm-.702-.694c.054.082.098.168.132.259l1.872-.705a3.31 3.31 0 00-.336-.657l-1.668 1.103zm.133.259c.049.132.091.267.124.404l1.943-.475a5.401 5.401 0 00-.196-.634l-1.871.705zm.125.405c.037.152.069.314.096.486l1.976-.309a7.798 7.798 0 00-.13-.654l-1.942.477zm.096.483c.029.193.058.391.086.591l1.981-.278a45.384 45.384 0 00-.09-.616l-1.977.303zm.085.583c.018.131.032.278.043.443l1.996-.135a9.07 9.07 0 00-.056-.569l-1.983.261zm.043.442c.012.172.021.348.028.527l1.998-.078a21.56 21.56 0 00-.03-.582l-1.996.133zm.028.526c.007.18.011.356.013.53l2-.023a19.232 19.232 0 00-.015-.583l-1.998.076zm.013.527l.003.505h2l-.003-.522-2 .017zm.003.505v.313h2v-.313h-2zm1-.687h-.775v2h.775v-2z" fill="#C6C6C6" mask="url(#h)"/><mask id="i" fill="#fff"><path d="M292.365 157.685a1.02 1.02 0 01.087-.418 1.08 1.08 0 01.587-.577 1.111 1.111 0 01.86 0c.266.111.478.317.592.577a1.045 1.045 0 010 .839 1.053 1.053 0 01-.239.341 1.13 1.13 0 01-1.213.23 1.087 1.087 0 01-.587-.571 1.038 1.038 0 01-.087-.421zm.606 0c0 .065.013.129.04.189a.5.5 0 00.459.297.503.503 0 00.502-.486.463.463 0 00-.04-.19.515.515 0 00-.462-.3.513.513 0 00-.352.145.53.53 0 00-.107.155.447.447 0 00-.04.19z"/></mask><path d="M292.365 157.685a1.02 1.02 0 01.087-.418 1.08 1.08 0 01.587-.577 1.111 1.111 0 01.86 0c.266.111.478.317.592.577a1.045 1.045 0 010 .839 1.053 1.053 0 01-.239.341 1.13 1.13 0 01-1.213.23 1.087 1.087 0 01-.587-.571 1.038 1.038 0 01-.087-.421zm.606 0c0 .065.013.129.04.189a.5.5 0 00.459.297.503.503 0 00.502-.486.463.463 0 00-.04-.19.515.515 0 00-.462-.3.513.513 0 00-.352.145.53.53 0 00-.107.155.447.447 0 00-.04.19z" fill="#C6C6C6"/><path d="M292.452 157.267l.915.405.002-.005-.917-.4zm.236-.345l-.704-.711-.003.004.707.707zm.351-.232l-.382-.925-.002.001.384.924zm.43-.086v-1 1zm.43.086l.385-.923-.004-.002-.381.925zm.592.577l.917-.399-.001-.002-.916.401zm0 .839l.917.4v-.002l-.917-.398zm-.239.341l.691.723h.001l-.692-.723zm-.353.23l.381.924h.001l-.382-.924zm-.43.085v1-1zm-.43-.085l.381-.925-.003-.001-.378.926zm-.587-.571l.918-.397-.003-.007-.915.404zm.559-.232l.914-.405-.002-.005-.912.41zm.265.258l-.388.922.004.002.384-.924zm.389 0l.383.924.01-.004-.393-.92zm.159-.104l.689.724.003-.002-.692-.722zm.108-.154l.913.409.002-.005-.915-.404zm0-.379l.915-.404-.002-.005-.913.409zm-.267-.261l.393-.919-.01-.004-.383.923zm-.389 0l-.384-.923-.005.002.389.921zm-.158.106l.706.708h.001l-.707-.708zm-.107.155l.912.411.001-.003-.913-.408zm.354.184c0-.001 0-.004.002-.007l-1.829-.81a2.003 2.003 0 00-.173.828l2-.011zm.004-.012a.115.115 0 01.025-.037l-1.413-1.415a2.116 2.116 0 00-.445.652l1.833.8zm.022-.034a.11.11 0 01.031-.02l-.767-1.847c-.25.104-.478.255-.671.445l1.407 1.422zm.029-.019a.13.13 0 01.049-.01v-2c-.278 0-.554.055-.812.161l.763 1.849zm.049-.01c.017 0 .034.004.049.01l.762-1.849a2.13 2.13 0 00-.811-.161v2zm.045.009a.108.108 0 01.061.055l1.832-.802a2.11 2.11 0 00-1.123-1.099l-.77 1.846zm.06.052a.06.06 0 01.004.021h2c0-.281-.058-.56-.17-.818l-1.834.797zm.004.021a.052.052 0 01-.004.021l1.834.797c.112-.258.17-.536.17-.818h-2zm-.003.019a.073.073 0 01-.014.02l1.383 1.445c.196-.189.354-.414.464-.664l-1.833-.801zm-.014.019a.128.128 0 01-.044.028l.764 1.849a2.13 2.13 0 00.662-.431l-1.382-1.446zm-.043.028a.134.134 0 01-.049.01v2c.278 0 .554-.055.811-.161l-.762-1.849zm-.049.01a.13.13 0 01-.049-.01l-.763 1.849c.258.106.534.161.812.161v-2zm-.052-.011a.086.086 0 01-.047-.042l-1.836.793a2.08 2.08 0 001.126 1.1l.757-1.851zm-.05-.049c-.002-.004-.002-.008-.002-.011l-2-.013c-.002.287.057.569.172.831l1.83-.807zm-1.396-.028a1.46 1.46 0 00.128.611l1.824-.821a.553.553 0 01.048.231l-2-.021zm.126.605c.156.354.442.628.791.775l.776-1.843a.498.498 0 01.261.258l-1.828.81zm.795.777c.184.076.38.115.578.115v-2a.5.5 0 01.19.038l-.768 1.847zm.578.115c.198 0 .395-.039.578-.115l-.767-1.847a.498.498 0 01.189-.038v2zm.588-.119c.168-.072.322-.173.455-.3l-1.378-1.449a.447.447 0 01.136-.09l.787 1.839zm.458-.302c.138-.132.25-.291.329-.467l-1.825-.818a.503.503 0 01.112-.159l1.384 1.444zm.331-.472a1.47 1.47 0 00.125-.593h-2c0-.075.016-.148.046-.215l1.829.808zm.125-.593c0-.205-.043-.407-.125-.594l-1.829.809a.525.525 0 01-.046-.215h2zm-.127-.599a1.518 1.518 0 00-.787-.771l-.787 1.839a.487.487 0 01-.251-.249l1.825-.819zm-.797-.775a1.491 1.491 0 00-.578-.116v2a.497.497 0 01-.189-.037l.767-1.847zm-.578-.116c-.198 0-.394.039-.578.116l.768 1.847a.498.498 0 01-.19.037v-2zm-.583.118a1.5 1.5 0 00-.476.32l1.414 1.415a.51.51 0 01-.16.107l-.778-1.842zm-.476.319a1.525 1.525 0 00-.313.456l1.826.815a.475.475 0 01-.1.145l-1.413-1.416zm-.312.452c-.086.192-.13.4-.128.612l2-.022a.554.554 0 01-.048.232l-1.824-.822z" fill="#C6C6C6" mask="url(#i)"/><path d="M297.283 158.447l-.068-.072-.013.013-.003.003h0a1.033 1.033 0 01-.305.2l.036.086-.036-.086-1.411-1.324a1.02 1.02 0 00-.087.418c-.001.144.029.288.087.421.112.257.322.462.586.571a1.134 1.134 0 001.214-.23zm0 0c.102-.097.183-.213.239-.341l-.317-1.123c.09.088.163.192.215.308l.001.004h0l.006.013.094-.041-.094.041c.05.119.076.247.076.377v.001c0 .13-.026.258-.077.378 0 0 0 0 0 0a.097.097 0 01-.005.011l-.002.005h0c-.05.11-.119.21-.204.295l.068.072z" fill="#C6C6C6" stroke="#C6C6C6"/><path d="M289.098 154.658l-2.635 6.06" stroke="#C6C6C6" stroke-width=".2" stroke-linecap="round" stroke-linejoin="round"/><path d="M313.757 33.578l-.092 1.223c.001.22.091.43.25.585a.87.87 0 00.601.245.884.884 0 00.596-.249.844.844 0 00.255-.58l.092-1.224a.829.829 0 00-.251-.585.866.866 0 00-.6-.244.882.882 0 00-.596.249.836.836 0 00-.255.58zM305.192 33.484l-.092 1.223a.82.82 0 00.251.585.865.865 0 00.6.244.885.885 0 00.596-.249.84.84 0 00.255-.58l.092-1.223a.829.829 0 00-.251-.585.865.865 0 00-.6-.245.883.883 0 00-.596.25.84.84 0 00-.255.58z" fill="#000"/><path d="M298.432 27.116a5.07 5.07 0 00-1.229 1.958 4.958 4.958 0 00-.222 2.286" stroke="#C6C6C6" stroke-width=".2" stroke-linecap="round" stroke-linejoin="round"/><path d="M282.754 44.706s.516 6.634 4.581 8.584l1.71-3.679s-4.743-3.238-6.291-4.904z" fill="#FFD9BE"/><path d="M347.66 100.545s.242 7.166-3.58 7.166c0 0 3.822.143 3.674 6.442 0 0 .148-6.299 3.971-6.355 0 0-4.016.456-4.065-7.253z" fill="#FF0" stroke="#FF0" stroke-miterlimit="10"/><path d="M337.208 30.464l-6 1.698M335.079 34.237l-1.742-5.848" stroke="#42BE65" stroke-width=".75" stroke-linecap="round" stroke-linejoin="round"/><path d="M279.72 103.574l-3.674-4.926M275.356 102.901l5.054-3.58" stroke="#C6C6C6" stroke-width=".75" stroke-linecap="round" stroke-linejoin="round"/><path d="M311.622 38.92c.071-.265-.144-.549-.48-.635-.336-.085-.666.06-.737.324-.071.265.144.549.48.634.336.086.666-.059.737-.324z" fill="#000"/><path d="M283.528 83.661c1.191.03 2.382-.076 3.548-.314M343.434 83.85s-1.129-.629-2.419-1.258" stroke="#fff" stroke-linecap="round" stroke-linejoin="round"/><path d="M322.917 67.91s-.209-1.478-3.887-3.561c0 0-1.065-.653-1.782-1.061-.443-.252-1.823-.92-1.823-.92l-1.411 3.498s2.371-2.272 8.903 2.044z" fill="#CAC5C4"/><path d="M261.979 76.619l2.387 2.326" stroke="#EAA7BD" stroke-width="6" stroke-linecap="round" stroke-linejoin="round"/><path d="M302.001 79.747h-8.897c-1.004 0-1.818.793-1.818 1.771v.56c0 .978.814 1.772 1.818 1.772h8.897c1.004 0 1.818-.793 1.818-1.772v-.56c0-.978-.814-1.771-1.818-1.771z" fill="#fff"/><path d="M313.046 68.193v3.395" stroke="#fff" stroke-linecap="round" stroke-linejoin="round"/><path d="M310.562 28.892s-2.013-1.627-3.368-1.557c-1.16.06-4.404.283-5.807.425M307.594 30.401s-2.481-1.84-3.401-1.84c-.919 0-3.387.237-3.387.237M300.226 29.882c.67 0 2.516.82 3.329 1.198.347.156.625.429.783.768a.725.725 0 01-.023.793" stroke="#01066D" stroke-width=".1" stroke-linecap="round" stroke-linejoin="round"/></svg>